<?xml version="1.0" encoding="utf-8"?>
<!-- Generated by IcoMoon.io -->
<svg version="1.1" xmlns="http://www.w3.org/2000/svg" xmlns:xlink="http://www.w3.org/1999/xlink" width="67" height="672" viewBox="0 0 67 672">
<svg id="icon-okey-box" viewBox="0 0 34 32">
<path d="M30.34 3.556v24.887h-26.547v-24.887h26.547zM30.34 0h-26.547c-2.086 0-3.793 1.6-3.793 3.556v24.887c0 1.956 1.707 3.556 3.793 3.556h26.547c2.086 0 3.793-1.6 3.793-3.556v-24.887c0-1.956-1.707-3.556-3.793-3.556z"></path>
</svg>
<svg id="icon-okey" viewBox="0 0 42 32">
<path fill="#000000" stroke-linejoin="miter" stroke-linecap="butt" stroke-miterlimit="4" stroke-width="0.64" d="M6.262 15.206l-0.221-0.211-0.221 0.208-3.085 2.925 0.243 0.234 11.408 10.88 0.221-0.211 24.256-23.139-0.243-0.23-3.043-2.902-0.221 0.211-20.97 19.987-8.125-7.75z"></path>
</svg>
<svg id="icon-form-mail" viewBox="0 0 43 32">
<path d="M37.333 0h-32c-2.2 0-3.981 1.8-3.981 4l-0.019 24c0 2.2 1.8 4 4 4h32c2.2 0 4-1.8 4-4v-24c0-2.2-1.8-4-4-4zM36.533 8.501l-14.139 8.837c-0.302 0.188-0.668 0.3-1.060 0.3s-0.758-0.112-1.069-0.305l0.009 0.005-14.141-8.84c-0.503-0.301-0.835-0.843-0.835-1.463 0-0.938 0.761-1.699 1.699-1.699 0.349 0 0.673 0.105 0.943 0.285l-0.006-0.004 13.4 8.381 13.4-8.381c0.264-0.176 0.588-0.282 0.937-0.282 0.938 0 1.699 0.761 1.699 1.699 0 0.62-0.332 1.162-0.828 1.459l-0.008 0.004z"></path>
</svg>
<svg id="icon-form-phone" viewBox="0 0 32 32">
<path d="M27.419 20.853l-4.201-0.48c-0.116-0.014-0.25-0.023-0.385-0.023-0.909 0-1.732 0.369-2.328 0.964l-3.045 3.045c-4.718-2.435-8.467-6.185-10.835-10.764l-0.065-0.139 3.063-3.056c0.596-0.596 0.964-1.419 0.964-2.328 0-0.136-0.008-0.27-0.024-0.401l0.002 0.016-0.48-4.169c-0.199-1.655-1.595-2.926-3.287-2.926-0.001 0-0.003 0-0.004 0h-2.861c-1.87-0.005-3.424 1.55-3.31 3.417 0.878 14.126 12.176 25.408 26.286 26.286 1.867 0.114 3.424-1.44 3.424-3.31v-2.862c0-0.005 0-0.010 0-0.016 0-1.681-1.266-3.067-2.897-3.256l-0.015-0.001z"></path>
</svg>
<svg id="icon-form-name" viewBox="0 0 32 32">
<path d="M16 16c4.418 0 8-3.582 8-8s-3.582-8-8-8v0c-4.418 0-8 3.582-8 8s3.582 8 8 8v0zM16 20c-5.339 0-16 2.68-16 8v2c0 1.099 0.901 2 2 2h28c1.099 0 2-0.901 2-2v-2c0-5.32-10.661-8-16-8z"></path>
</svg>
<svg id="icon-signup" viewBox="0 0 32 32">
<path fill="#fff" d="M32 0l-32 18 10.227 3.787 15.773-14.787-11.997 16.187 0.009 0.003-0.012-0.003v8.813l5.735-6.691 7.267 2.691 4.999-28z"></path>
</svg>
<svg id="icon-close-btn" viewBox="0 0 32 32">
<path fill="#0000000" d="M32 3.223l-3.223-3.223-12.777 12.777-12.777-12.777-3.223 3.223 12.777 12.777-12.777 12.777 3.223 3.223 12.777-12.777 12.777 12.777 3.223-3.223-12.777-12.777 12.777-12.777z"></path>
</svg>
<svg id="icon-antenna" viewBox="0 0 30 32">
<path fill="#212121" d="M29.859 22.098l-8.443-8.505 0.937-4.616c0.225 0.090 0.485 0.144 0.758 0.146h0.007c0.008 0 0.017 0 0.026 0 1.192 0 2.159-0.967 2.159-2.159s-0.967-2.159-2.159-2.159c-1.192 0-2.159 0.967-2.159 2.159 0 0.259 0.046 0.508 0.13 0.739l-0.005-0.015-4.96 0.606-8.091-8.133c-0.096-0.098-0.229-0.159-0.376-0.16h-0c-0.14 0.001-0.274 0.057-0.373 0.155l-1.512 1.504c-0.096 0.097-0.156 0.23-0.156 0.377s0.060 0.281 0.156 0.377v0l0.814 0.825c-1.143 2.062-1.816 4.522-1.816 7.139 0 4.106 1.656 7.824 4.336 10.525l-0.001-0.001c0.043 0.041 0.092 0.074 0.146 0.097-0.032 0.164-0.051 0.353-0.052 0.546v6.188h-6.4c-1.472 0.001-2.666 1.194-2.667 2.666v1.067c0 0.295 0.239 0.534 0.534 0.534h24.534c0.294 0 0.533-0.239 0.533-0.534v-1.067c-0.002-1.472-1.195-2.665-2.666-2.666h-6.4v-2.742c1.003 0.21 2.024 0.317 3.049 0.32 2.58-0.003 5.005-0.663 7.117-1.822l-0.077 0.039 0.818 0.823c0.099 0.101 0.235 0.159 0.376 0.16 0.14-0.001 0.274-0.057 0.373-0.155l1.512-1.504c0.096-0.097 0.156-0.23 0.156-0.377s-0.060-0.281-0.156-0.377v0zM22.366 6.233c0.193-0.192 0.459-0.31 0.752-0.31 0.589 0 1.067 0.478 1.067 1.066s-0.477 1.066-1.067 1.066c-0 0-0 0-0 0h-0.004c-0.587-0.003-1.061-0.479-1.061-1.066 0-0.295 0.12-0.563 0.314-0.756l0-0h-0.002zM21.11 9.737l-0.598 2.946-1.175-1.183 1.774-1.763zM20.504 8.835l-1.92 1.909-1.486-1.493 3.406-0.416zM23.090 28.8c0.884 0 1.6 0.716 1.6 1.6v0 0.534h-23.466v-0.534c0-0.884 0.716-1.6 1.6-1.6v0h20.267zM15.623 26.666v1.067h-5.334v-1.067h5.334zM10.29 25.6v-4.053c0-1.294 1.196-2.346 2.666-2.346s2.667 1.053 2.667 2.346v4.053h-5.333zM16.69 23.904v-2.357c0-1.882-1.675-3.413-3.733-3.413-0.017-0-0.038-0-0.058-0-1.353 0-2.54 0.707-3.213 1.771l-0.009 0.016c-2.36-2.482-3.812-5.846-3.812-9.55 0-2.314 0.567-4.496 1.569-6.414l-0.036 0.077 18.602 18.709c-1.823 0.947-3.979 1.502-6.266 1.502-1.079 0-2.128-0.124-3.136-0.357l0.093 0.018zM27.979 23.22l-21.057-21.181 0.754-0.752 7.935 7.98c0.004 0 0.006 0.007 0.010 0.010l13.115 13.191-0.757 0.752z"></path>
<path fill="#2196f3" d="M12.961 20.267h-0.005c-0.001 0-0.002 0-0.002 0-0.884 0-1.6 0.716-1.6 1.6s0.715 1.599 1.597 1.6h0.005c0.001 0 0.001 0 0.002 0 0.884 0 1.6-0.716 1.6-1.6s-0.715-1.599-1.598-1.6h-0zM13.334 22.245c-0.096 0.096-0.229 0.155-0.376 0.155-0.295 0-0.534-0.239-0.534-0.534s0.238-0.533 0.532-0.533h0c0.293 0.001 0.531 0.239 0.531 0.533 0 0.148-0.060 0.282-0.157 0.378l-0 0h0.005z"></path>
</svg>
<svg id="icon-astronaut" viewBox="0 0 32 32">
<path fill="#2196f3" d="M31.974 4.524c-0.064-0.191-0.227-0.332-0.427-0.362l-0.003-0-1.911-0.278-0.855-1.731c-0.179-0.365-0.777-0.365-0.956 0l-0.855 1.731-1.911 0.278c-0.26 0.039-0.457 0.26-0.457 0.528 0 0.15 0.062 0.285 0.161 0.382l1.383 1.348-0.326 1.903c-0.034 0.2 0.048 0.402 0.212 0.522 0.166 0.12 0.383 0.135 0.562 0.040l1.709-0.899 1.709 0.899c0.072 0.038 0.157 0.061 0.247 0.061 0.295 0 0.534-0.239 0.534-0.534 0-0.031-0.003-0.062-0.008-0.092l0 0.003-0.326-1.903 1.383-1.348c0.099-0.097 0.161-0.233 0.161-0.382 0-0.059-0.009-0.115-0.027-0.168l0.001 0.004zM29.511 5.851c-0.126 0.122-0.183 0.299-0.153 0.472l0.191 1.114-1-0.526c-0.072-0.039-0.158-0.062-0.249-0.062s-0.177 0.023-0.252 0.063l0.003-0.001-1 0.526 0.191-1.114c0.005-0.027 0.008-0.059 0.008-0.091 0-0.149-0.061-0.285-0.16-0.381l-0-0-0.811-0.789 1.119-0.163c0.174-0.025 0.324-0.134 0.402-0.292l0.5-1.013 0.5 1.013c0.078 0.158 0.228 0.267 0.402 0.292l1.119 0.162-0.809 0.79zM26.134 20.522h-1.067v1.067h1.067v-1.067zM26.134 22.656h-1.067v1.066h1.067v-1.066zM27.2 21.589h-1.067v1.067h1.067v-1.067zM25.067 21.589h-1.067v1.067h1.067v-1.067zM22.4 26.389h-1.067v1.067h1.067v-1.067zM22.4 28.523h-1.067v1.067h1.067v-1.067zM23.467 27.456h-1.067v1.067h1.067v-1.067zM21.334 27.456h-1.067v1.067h1.067v-1.067zM16 24.256h-1.066v1.067h1.066v-1.067zM16 26.389h-1.066v1.067h1.066v-1.067zM17.067 25.322h-1.067v1.067h1.067v-1.067zM14.934 25.322h-1.067v1.067h1.067v-1.067zM5.867 6.122h-1.066v1.066h1.066v-1.066zM5.867 8.256h-1.066v1.066h1.066v-1.066zM6.933 7.189h-1.067v1.067h1.066v-1.067zM4.8 7.189h-1.067v1.067h1.067v-1.067z"></path>
<path fill="#212121" d="M24.715 14.16c-0.28-0.376-0.698-0.636-1.179-0.703l-0.009-0.001c-0.076-0.012-0.164-0.018-0.254-0.018-0.411 0-0.789 0.139-1.090 0.373l0.004-0.003-1.253 0.96-1.898 1.417-1.358-0.541c2.421-1.086 4.113-3.508 4.113-6.32 0-3.823-3.122-6.934-6.961-6.934s-6.961 3.11-6.961 6.934c0 1.386 0.415 2.674 1.12 3.759l-2.768-0.024c-0.009 0-0.016 0.005-0.023 0.005-0.057 0.003-0.11 0.014-0.159 0.033l0.004-0.001c-0.013 0.005-0.026 0.007-0.038 0.013-0.006 0.003-0.013 0.003-0.019 0.006l-3.233 1.596c-0 0-0.001 0-0.001 0.001l-1.893 0.91c-0.024 0.011-0.045 0.023-0.064 0.036l0.001-0.001c-0.482 0.324-0.795 0.867-0.795 1.483 0 0.297 0.073 0.577 0.201 0.823l-0.005-0.010c0.22 0.424 0.592 0.742 1.043 0.885l0.013 0.003c0.161 0.053 0.345 0.083 0.537 0.083 0.308 0 0.598-0.078 0.851-0.216l-0.009 0.005 1.388-0.738 2.264-1.169 1.357-0.008-5.442 5.415c0 0.001-0.001 0.001-0.001 0.001l-1.339 1.333c-0.303 0.299-0.491 0.714-0.491 1.173 0 0.002 0 0.003 0 0.005v-0c0.002 0.919 0.748 1.664 1.667 1.664 0.001 0 0.002 0 0.002 0h-0c0.428 0 0.854-0.162 1.18-0.485l1.314-1.309 1.741-1.3 0.901 0.897-3.102 3.088c-0.303 0.299-0.491 0.715-0.491 1.174 0 0.001 0 0.003 0 0.004v-0c0 0.445 0.174 0.864 0.49 1.179 0.302 0.3 0.717 0.485 1.176 0.485 0.001 0 0.002 0 0.003 0h-0c0.427 0 0.855-0.162 1.18-0.485l4.488-4.472c0.007-0.006 0.016-0.009 0.022-0.016l5.166-5.658 3.471 0.494c0.025 0.004 0.050 0.006 0.075 0.006 0.064 0 0.127-0.016 0.187-0.038 0.017-0.006 0.032-0.015 0.049-0.023 0.019-0.010 0.039-0.015 0.058-0.027l3.213-2.133c0.012-0.008 0.018-0.021 0.029-0.030 0.013-0.010 0.029-0.014 0.041-0.026l1.271-1.191c0.348-0.326 0.564-0.787 0.564-1.3 0-0.4-0.132-0.769-0.355-1.066l0.003 0.005zM2.13 17.77c-0.098 0.054-0.215 0.086-0.34 0.086-0.078 0-0.153-0.013-0.224-0.036l0.005 0.001c-0.294-0.093-0.504-0.364-0.504-0.683 0-0.236 0.114-0.445 0.29-0.575l0.002-0.001 1.314-0.632 0.316 0.924 0.133 0.389-0.992 0.527zM5.627 15.942l-1.548 0.8-0.255-0.746-0.184-0.537 2.027-1.001-0.040 1.484zM20.727 9.322c0 0.918-0.219 1.785-0.599 2.56l-4.181-1.899c-0.044-0.575-0.342-1.072-0.782-1.384l-0.006-0.004 1.464-4.86c2.377 0.756 4.104 2.974 4.104 5.588zM8.938 9.322c0-3.235 2.644-5.867 5.894-5.867 0.253 0 0.5 0.022 0.745 0.053l-1.432 4.753c-0.019 0-0.037-0.006-0.057-0.006-0 0-0.001 0-0.001 0-1.032 0-1.869 0.835-1.872 1.867v0c0.003 1.031 0.84 1.867 1.872 1.867 0 0 0 0 0.001 0h-0c0.695 0 1.295-0.383 1.618-0.944l3.863 1.755c-1.075 1.446-2.795 2.389-4.737 2.389-3.25 0-5.894-2.632-5.894-5.867zM14.895 10.122c0 0.441-0.362 0.8-0.806 0.8-0 0-0.001 0-0.001 0-0.443 0-0.802-0.358-0.804-0.8v-0c0-0.441 0.361-0.8 0.806-0.8s0.806 0.359 0.806 0.8zM2.464 25.146c-0.11 0.109-0.261 0.176-0.428 0.176s-0.317-0.067-0.427-0.175l0 0c-0.109-0.108-0.176-0.257-0.176-0.422s0.067-0.314 0.176-0.422l0-0 0.962-0.959 0.852 0.848-0.959 0.955zM5.678 28.88c-0.11 0.109-0.261 0.176-0.428 0.176s-0.317-0.067-0.427-0.175l0 0c-0.109-0.108-0.176-0.257-0.176-0.422s0.067-0.314 0.176-0.422l0-0 0.963-0.959 0.852 0.848-0.96 0.955zM9.16 25.411l-0.001 0.001-1.765 1.76-0.852-0.848 1.765-1.757c0.040-0.040 0.065-0.088 0.090-0.136 0.007-0.014 0.020-0.026 0.026-0.040 0.016-0.041 0.019-0.085 0.026-0.128 0.003-0.025 0.014-0.048 0.014-0.073 0-0.035-0.013-0.070-0.020-0.105-0.006-0.032-0.006-0.064-0.019-0.096-0.025-0.053-0.055-0.098-0.092-0.138l0 0c-0.010-0.012-0.014-0.027-0.025-0.038h-0.001s0-0.001-0.001-0.002l-1.607-1.6c-0.017-0.017-0.039-0.024-0.058-0.038-0.025-0.021-0.054-0.040-0.084-0.057l-0.003-0.001c-0.026-0.013-0.058-0.023-0.090-0.031l-0.003-0.001c-0.030-0.009-0.065-0.017-0.101-0.020l-0.002-0c-0.007-0-0.015-0.001-0.023-0.001-0.026 0-0.051 0.002-0.075 0.005l0.003-0c-0.036 0.005-0.069 0.009-0.104 0.021-0.036 0.013-0.067 0.028-0.096 0.046l0.002-0.001c-0.020 0.011-0.043 0.015-0.061 0.029l-1.774 1.324-0.901-0.897 2.399-2.386 4.36 4.289-0.928 0.919zM15.979 18.394c-0.016-0.002-0.030 0.004-0.046 0.003-0.008-0-0.017-0.001-0.027-0.001-0.031 0-0.062 0.003-0.092 0.008l0.003-0c-0.070 0.011-0.132 0.035-0.187 0.070l0.002-0.001c-0.031 0.019-0.058 0.039-0.083 0.062l0-0c-0.013 0.011-0.028 0.016-0.040 0.029l-4.698 5.146-4.328-4.256 2.833-2.818c0.096-0.097 0.156-0.23 0.156-0.377 0-0.295-0.239-0.534-0.534-0.534-0.001 0-0.001 0-0.002 0h0l-2.219 0.013 0.028-1.607 3.104 0.027c1.264 1.297 3.027 2.101 4.978 2.101 0.001 0 0.002 0 0.003 0h-0c0.438 0 0.864-0.046 1.28-0.122 0.040 0.032 0.080 0.064 0.129 0.085l2.41 0.96 0.152 0.759 0.178 0.885-3.003-0.427zM20.020 18.572l-0.313-1.558 1.446-1.080 0.946 1.257-2.080 1.381zM23.773 15.741l-0.837 0.785-0.931-1.237 0.831-0.637c0.155-0.119 0.351-0.168 0.543-0.143 0.193 0.027 0.364 0.128 0.48 0.284 0.088 0.117 0.141 0.265 0.141 0.426 0 0.206-0.087 0.391-0.226 0.521l-0 0z"></path>
<path fill="#212121" d="M13.602 18.544l-2.143-2.134c-0.096-0.096-0.229-0.155-0.376-0.155s-0.28 0.059-0.376 0.155l-2.143 2.133c-0.097 0.097-0.156 0.23-0.156 0.378s0.060 0.281 0.156 0.378l-0-0 2.142 2.134c0.096 0.096 0.229 0.156 0.376 0.156s0.28-0.059 0.376-0.156v0l2.143-2.134c0.097-0.097 0.157-0.23 0.157-0.378s-0.060-0.281-0.157-0.378l-0-0zM11.083 20.303l-1.387-1.381 1.386-1.381 1.387 1.381-1.387 1.381zM17.164 5.071l-0.258 1.036c0.071 0.018 1.738 0.452 1.738 2.149h1.067c0-2.017-1.666-2.965-2.547-3.184zM19.711 9.322h-1.067v1.066h1.067v-1.066z"></path>
</svg>
<svg id="icon-diagram" viewBox="0 0 32 32">
<path fill="#2196f3" d="M14.926 14.965h1.066v4.798h-1.066v-4.798zM19.19 17.097h1.066v2.665h-1.066v-2.665zM10.661 18.696h1.066v1.066h-1.066v-1.066zM7.463 18.163h1.066v1.599h-1.066v-1.599z"></path>
<path fill="#212121" d="M1.599 28.291h25.586c0 0 0 0 0 0 0.883 0 1.599-0.716 1.599-1.599v0-2.132c0-0.883-0.716-1.599-1.599-1.599v0h-0.533v-13.294l3.028-2.868c0.207 0.104 0.452 0.166 0.711 0.166 0.888 0 1.608-0.72 1.608-1.608s-0.72-1.608-1.608-1.608c-0.888 0-1.608 0.72-1.608 1.608 0 0.247 0.056 0.481 0.155 0.69l-0.004-0.010-2.281 2.162v-1.23c0-0.883-0.716-1.599-1.599-1.599v0h-21.323c-0.883 0-1.599 0.716-1.599 1.599v0 15.992h-0.533c-0.883 0-1.599 0.716-1.599 1.599v0 2.132c0 0.883 0.716 1.599 1.599 1.599v0zM30.384 4.837c0.294 0 0.533 0.239 0.533 0.533s-0.239 0.533-0.533 0.533v0c-0.294 0-0.533-0.239-0.533-0.533s0.239-0.533 0.533-0.533v0zM3.198 6.969c0-0.294 0.239-0.533 0.533-0.533h21.323c0.294 0 0.533 0.239 0.533 0.533v2.239l-1.066 1.013v-2.185c0-0.295-0.239-0.534-0.534-0.534h-19.189c-0.294 0-0.534 0.239-0.534 0.533v13.327c0 0.294 0.239 0.533 0.534 0.533h19.189c0.295 0 0.534-0.239 0.534-0.533v-9.675l1.066-1.010v12.283h-22.389v-15.991zM7.996 13.899c-0.001 0-0.003 0-0.005 0-0.883 0-1.599 0.716-1.599 1.599s0.716 1.599 1.599 1.599c0.432 0 0.824-0.172 1.112-0.45l-0 0 1.853 0.93c0.215 0.107 0.476 0.057 0.636-0.122l3.939-4.432 3.872 2.902c0.208 0.155 0.498 0.139 0.686-0.039l3.365-3.188v8.131h-18.123v-12.261h18.123v2.661l-3.771 3.572-3.904-2.927c-0.088-0.067-0.2-0.107-0.32-0.107-0.158 0-0.3 0.069-0.398 0.178l-0 0.001-3.993 4.493-1.493-0.746c0.011-0.064 0.017-0.128 0.020-0.193 0-0.883-0.716-1.599-1.599-1.599v0zM8.529 15.498c0 0.294-0.239 0.533-0.533 0.533s-0.533-0.239-0.533-0.533v0c0-0.294 0.239-0.533 0.533-0.533s0.533 0.239 0.533 0.533v0zM11.727 24.026h5.33v0.533c0 0.294-0.238 0.533-0.533 0.533h-4.265c-0.294 0-0.533-0.239-0.533-0.533v0-0.533zM1.067 24.56c0-0.294 0.238-0.533 0.533-0.533h9.062v0.533c0 0.883 0.716 1.599 1.599 1.599v0h4.265c0.883 0 1.599-0.716 1.599-1.599v0-0.533h9.062c0.294 0 0.533 0.239 0.533 0.533v2.132c0 0.294-0.239 0.533-0.533 0.533h-25.586c-0 0-0 0-0 0-0.294 0-0.533-0.239-0.533-0.533 0 0 0 0 0 0v0-2.132z"></path>
</svg>
<svg id="icon-clock" viewBox="0 0 32 32">
<path fill="#212121" d="M31.296 15.301c-0.001-8.452-6.855-15.303-15.308-15.301s-15.303 6.855-15.301 15.308c0.002 6.788 4.422 12.543 10.541 14.545l0.108 0.031c0.061 0.019 0.123 0.029 0.187 0.029 0.12 0 0.238-0.032 0.342-0.094 0.135-0.080 0.236-0.207 0.283-0.357l3.865-12.25c1.054-0.004 1.906-0.859 1.906-1.913 0-1.056-0.856-1.913-1.913-1.913-0.303 0-0.59 0.071-0.845 0.196l0.011-0.005-5.106-5.107c-0.114-0.11-0.271-0.179-0.443-0.179-0.352 0-0.638 0.286-0.638 0.638 0 0.172 0.068 0.328 0.179 0.443l-0-0 5.103 5.109c-0.121 0.241-0.191 0.525-0.191 0.826 0 0.602 0.283 1.137 0.723 1.48l0.004 0.003-3.682 11.673c-7.278-2.681-11.004-10.754-8.324-18.032s10.754-11.004 18.032-8.323c7.278 2.681 11.004 10.754 8.323 18.032-1.345 3.581-4.003 6.406-7.374 7.938l-0.088 0.036-0.398-1.874c-0.063-0.291-0.318-0.506-0.624-0.506-0.164 0-0.313 0.062-0.426 0.163l0.001-0.001-3.837 3.426c-0.132 0.117-0.214 0.287-0.214 0.477 0 0.283 0.185 0.524 0.441 0.606l0.005 0.001 4.899 1.563c0.058 0.020 0.126 0.031 0.196 0.031 0.352 0 0.637-0.285 0.637-0.637 0-0.047-0.005-0.093-0.015-0.138l0.001 0.004-0.391-1.839c5.528-2.374 9.329-7.772 9.329-14.057 0-0.011 0-0.023-0-0.034v0.002zM15.992 14.664c0.352 0 0.638 0.286 0.638 0.638s-0.285 0.638-0.638 0.638v0c-0.352 0-0.638-0.286-0.638-0.638s0.286-0.638 0.638-0.638v0zM18.092 29.528l2.184-1.948 0.603 2.84-2.787-0.892z"></path>
<path fill="#2196f3" d="M15.354 3.185v1.275c0 0.352 0.286 0.638 0.638 0.638s0.638-0.285 0.638-0.638v0-1.275c0-0.352-0.285-0.638-0.638-0.638s-0.638 0.285-0.638 0.638v0zM3.876 14.664c-0.352 0-0.638 0.286-0.638 0.638s0.285 0.638 0.638 0.638h1.275c0.352 0 0.638-0.286 0.638-0.638s-0.285-0.638-0.638-0.638h-1.275zM28.108 15.939c0.352 0 0.638-0.286 0.638-0.638s-0.285-0.638-0.638-0.638h-1.275c-0.352 0-0.638 0.286-0.638 0.638s0.285 0.638 0.638 0.638h1.275z"></path>
</svg>
<svg id="icon-logo1" viewBox="0 0 27 32">
<path d="M4 0.475l4.672 4.423-8.672-0.005v21.458h22.667v-8.205l4.667 4.418v-22.089h-23.333zM22.461 17.628l-13.247-12.54h13.247v12.54zM18.349 23.213h-14.762v-14.433h1.043v13.455h13.719v0.977zM7.073 29.208l-0.545 1.123-0.545-1.123h-0.457l0.796 1.497v0.873h0.413v-0.873l0.794-1.497h-0.455zM7.759 31.578l0.192-0.552h0.918l0.193 0.552h0.43l-0.897-2.37h-0.37l-0.895 2.37h0.428zM8.409 29.711l0.343 0.983h-0.687l0.343-0.983zM10.581 30.637c-0.056 0.084-0.089 0.186-0.089 0.297 0 0.001 0 0.003 0 0.004v-0c0 0.2 0.070 0.362 0.21 0.487s0.329 0.186 0.563 0.186c0.234 0 0.436-0.063 0.605-0.191l0.133 0.158h0.459l-0.348-0.412c0.137-0.187 0.205-0.426 0.205-0.717h-0.343c0 0.159-0.033 0.304-0.099 0.434l-0.458-0.54 0.161-0.117c0.098-0.067 0.18-0.149 0.244-0.244l0.002-0.003c0.047-0.077 0.075-0.17 0.075-0.269 0-0.001 0-0.003-0-0.004v0c0-0.003 0-0.006 0-0.009 0-0.146-0.064-0.277-0.166-0.366l-0.001-0c-0.105-0.095-0.246-0.154-0.4-0.154-0.008 0-0.016 0-0.025 0l0.001-0c-0.191 0-0.343 0.055-0.455 0.163-0.113 0.107-0.169 0.253-0.169 0.439 0 0.076 0.018 0.155 0.053 0.236 0.037 0.081 0.102 0.18 0.193 0.296-0.175 0.126-0.293 0.235-0.353 0.327zM11.65 31.161c-0.101 0.082-0.232 0.132-0.374 0.133h-0c-0.006 0-0.013 0-0.019 0-0.102 0-0.195-0.039-0.264-0.103l0 0c-0.066-0.064-0.106-0.154-0.106-0.253 0-0.005 0-0.009 0-0.014l-0 0.001c0-0.127 0.065-0.24 0.195-0.339l0.051-0.036 0.517 0.611zM11.225 30.111c-0.112-0.137-0.168-0.252-0.168-0.343 0-0.079 0.023-0.145 0.069-0.197 0.043-0.048 0.105-0.078 0.174-0.078 0.004 0 0.007 0 0.011 0l-0.001-0c0.003-0 0.006-0 0.009-0 0.065 0 0.125 0.025 0.169 0.067l-0-0c0.047 0.043 0.070 0.096 0.070 0.157 0 0.003 0 0.006 0 0.009 0 0.088-0.039 0.167-0.1 0.221l-0 0-0.051 0.040-0.181 0.124zM15.083 31.399c0.163-0.142 0.256-0.34 0.28-0.592h-0.41c-0.022 0.169-0.073 0.29-0.155 0.363s-0.203 0.109-0.365 0.109c-0.177 0-0.311-0.067-0.403-0.202s-0.137-0.33-0.137-0.586v-0.21c0.003-0.253 0.051-0.444 0.147-0.575 0.097-0.131 0.235-0.197 0.413-0.197 0.154 0 0.271 0.038 0.35 0.113s0.13 0.198 0.15 0.369h0.41c-0.027-0.26-0.119-0.46-0.279-0.603s-0.37-0.213-0.631-0.213c-0.194 0-0.365 0.047-0.514 0.139-0.149 0.095-0.266 0.229-0.338 0.388l-0.002 0.006c-0.076 0.166-0.12 0.359-0.12 0.563 0 0.010 0 0.020 0 0.029l-0-0.001v0.221c0.003 0.218 0.044 0.409 0.122 0.575s0.189 0.292 0.332 0.383c0.145 0.089 0.311 0.133 0.5 0.133 0.27 0 0.487-0.071 0.649-0.212zM17.503 31.067c0.080-0.175 0.121-0.38 0.121-0.612v-0.131c0-0.007 0-0.016 0-0.024 0-0.211-0.046-0.412-0.128-0.592l0.004 0.009c-0.075-0.167-0.194-0.304-0.343-0.398l-0.004-0.002c-0.149-0.093-0.319-0.14-0.513-0.14s-0.364 0.047-0.514 0.141c-0.149 0.093-0.264 0.228-0.347 0.405-0.077 0.172-0.122 0.372-0.122 0.583 0 0.010 0 0.021 0 0.031l-0-0.002v0.133c0.001 0.227 0.042 0.427 0.123 0.6 0.083 0.174 0.199 0.308 0.349 0.403 0.151 0.093 0.322 0.14 0.514 0.14 0.195 0 0.366-0.047 0.515-0.14 0.149-0.095 0.265-0.229 0.345-0.404zM17.062 29.727c0.1 0.14 0.149 0.341 0.149 0.604v0.123c0 0.267-0.049 0.47-0.148 0.609-0.097 0.139-0.237 0.209-0.42 0.209-0.005 0-0.011 0-0.017 0-0.168 0-0.316-0.084-0.405-0.212l-0.001-0.002c-0.101-0.142-0.151-0.343-0.151-0.604v-0.137c0.002-0.255 0.053-0.452 0.153-0.591 0.089-0.128 0.235-0.21 0.401-0.21 0.006 0 0.012 0 0.018 0l-0.001-0c0.183 0 0.323 0.070 0.422 0.21z"></path>
</svg>
<svg id="icon-logo6" viewBox="0 0 67 32">
<path d="M33.724 15.223c-0.271-0.35-0.435-0.795-0.435-1.278 0-0.048 0.002-0.095 0.005-0.142l-0 0.006v-2.051c0-0.628 0.142-1.106 0.428-1.433 0.284-0.327 0.774-0.489 1.468-0.488 0.652 0 1.116 0.139 1.389 0.417 0.299 0.355 0.444 0.789 0.411 1.226v0.482h-1.166v-0.489c0.004-0.159-0.007-0.319-0.034-0.477-0.020-0.116-0.081-0.214-0.166-0.283l-0.001-0.001c-0.105-0.070-0.234-0.112-0.373-0.112-0.018 0-0.035 0.001-0.052 0.002l0.002-0c-0.015-0.001-0.033-0.002-0.050-0.002-0.147 0-0.283 0.044-0.397 0.12l0.003-0.002c-0.096 0.077-0.166 0.185-0.193 0.309l-0.001 0.004c-0.030 0.14-0.047 0.302-0.047 0.467 0 0.014 0 0.028 0 0.042l-0-0.002v2.488c-0.019 0.24 0.033 0.48 0.149 0.698 0.061 0.075 0.139 0.133 0.23 0.168l0.004 0.001c0.068 0.027 0.148 0.043 0.231 0.043 0.025 0 0.050-0.001 0.074-0.004l-0.003 0c0.015 0.001 0.032 0.002 0.049 0.002 0.136 0 0.262-0.043 0.365-0.116l-0.002 0.001c0.090-0.075 0.153-0.18 0.174-0.299l0-0.003c0.027-0.165 0.040-0.332 0.036-0.498v-0.505h1.167v0.461c0.003 0.036 0.004 0.079 0.004 0.122 0 0.443-0.153 0.85-0.41 1.171l0.003-0.004c-0.268 0.304-0.725 0.457-1.397 0.457s-1.179-0.163-1.466-0.501zM38.583 15.245c-0.295-0.32-0.442-0.784-0.442-1.399v-2.157c0-0.609 0.147-1.070 0.442-1.383s0.787-0.469 1.478-0.467c0.686 0 1.176 0.156 1.471 0.467 0.294 0.313 0.444 0.774 0.444 1.383v2.156c0 0.609-0.149 1.077-0.449 1.398s-0.787 0.481-1.466 0.481-1.181-0.163-1.479-0.479zM40.604 14.727c0.106-0.199 0.154-0.419 0.14-0.638v-2.641c0.001-0.021 0.002-0.046 0.002-0.071 0-0.203-0.052-0.394-0.142-0.561l0.003 0.006c-0.062-0.076-0.142-0.135-0.234-0.17l-0.004-0.001c-0.068-0.027-0.146-0.042-0.229-0.042-0.028 0-0.056 0.002-0.083 0.005l0.003-0c-0.024-0.003-0.051-0.005-0.079-0.005-0.083 0-0.161 0.015-0.234 0.043l0.004-0.002c-0.096 0.036-0.177 0.096-0.239 0.171l-0.001 0.001c-0.107 0.195-0.154 0.41-0.14 0.626v2.652c-0.014 0.22 0.033 0.439 0.14 0.639 0.068 0.067 0.152 0.121 0.246 0.158 0.089 0.036 0.192 0.056 0.3 0.056s0.211-0.021 0.305-0.058l-0.006 0.002c0.095-0.037 0.178-0.091 0.246-0.158v-0.013zM43.381 9.902h1.256l0.944 3.979 0.967-3.979h1.222l0.124 5.743h-0.904l-0.097-3.991-0.932 3.991h-0.725l-0.966-4.006-0.090 4.006h-0.913l0.114-5.743zM49.301 9.902h1.957c1.127 0 1.691 0.543 1.691 1.631 0 1.041-0.594 1.562-1.781 1.56h-0.666v2.552h-1.208l0.007-5.744zM50.973 12.356c0.119 0.014 0.24 0.004 0.356-0.028 0.114-0.031 0.22-0.083 0.309-0.154 0.139-0.194 0.2-0.422 0.174-0.649 0.001-0.019 0.001-0.041 0.001-0.063 0-0.163-0.022-0.321-0.062-0.471l0.003 0.013c-0.019-0.061-0.050-0.114-0.089-0.158l0 0c-0.042-0.047-0.093-0.086-0.149-0.114l-0.003-0.001c-0.141-0.059-0.304-0.094-0.476-0.094-0.022 0-0.044 0.001-0.066 0.002l0.003-0h-0.469v1.717h0.469zM54.692 9.902h1.297l1.331 5.743h-1.126l-0.263-1.324h-1.157l-0.27 1.324h-1.143l1.331-5.743zM55.8 13.655l-0.452-2.411-0.452 2.411h0.903zM58.394 9.902h0.846l1.618 3.276v-3.276h1.003v5.743h-0.804l-1.628-3.42v3.42h-1.036l0.002-5.743zM64.209 13.454l-1.345-3.545h1.133l0.821 2.278 0.77-2.278h1.109l-1.329 3.546v2.19h-1.159v-2.19zM35.59 18.156v0.3h-0.986v2.334h-0.413v-2.334h-0.991v-0.3h2.389zM38.679 20.79h-0.319c-0.003 0-0.006 0-0.009 0-0.030 0-0.058-0.009-0.081-0.025l0 0c-0.023-0.015-0.041-0.035-0.052-0.060l-0-0.001-0.285-0.626h-1.367l-0.284 0.626c-0.009 0.028-0.024 0.052-0.044 0.071l-0 0c-0.023 0.016-0.052 0.025-0.082 0.025-0.003 0-0.005-0-0.008-0h-0.318l1.208-2.634h0.42l1.223 2.624zM36.679 19.812h1.14l-0.484-1.072c-0.031-0.067-0.061-0.15-0.086-0.235l-0.003-0.014c-0.017 0.050-0.031 0.098-0.045 0.14l-0.044 0.11-0.478 1.070zM40.762 20.531c0.076 0.004 0.151 0.004 0.228 0 0.065-0.006 0.129-0.016 0.193-0.031 0.059-0.012 0.117-0.028 0.174-0.048 0.053-0.018 0.107-0.042 0.161-0.065v-0.592h-0.483c-0.001 0-0.003 0-0.004 0-0.023 0-0.044-0.008-0.061-0.022l0 0c-0.008-0.006-0.014-0.013-0.018-0.021l-0-0c-0.004-0.007-0.006-0.015-0.006-0.024 0-0.001 0-0.002 0-0.003v0-0.202h0.937v1.010c-0.147 0.091-0.316 0.165-0.496 0.211l-0.013 0.003c-0.1 0.026-0.2 0.043-0.302 0.055-0.117 0.011-0.235 0.016-0.353 0.016-0.005 0-0.010 0-0.015 0-0.212 0-0.416-0.036-0.606-0.102l0.013 0.004c-0.186-0.065-0.347-0.158-0.486-0.277l0.002 0.002c-0.129-0.114-0.234-0.253-0.308-0.409l-0.003-0.008c-0.070-0.156-0.111-0.338-0.111-0.529 0-0.006 0-0.012 0-0.019v0.001c-0-0.005-0-0.010-0-0.016 0-0.193 0.040-0.377 0.112-0.543l-0.003 0.009c0.069-0.156 0.176-0.299 0.311-0.417 0.138-0.119 0.302-0.211 0.484-0.273 0.206-0.068 0.427-0.101 0.647-0.098 0.112 0 0.225 0.007 0.336 0.023 0.098 0.014 0.195 0.036 0.287 0.067 0.085 0.027 0.166 0.063 0.242 0.105 0.074 0.041 0.144 0.087 0.211 0.137l-0.116 0.163c-0.010 0.015-0.023 0.027-0.039 0.035l-0.001 0c-0.016 0.009-0.035 0.014-0.055 0.014h-0c-0.028-0.001-0.053-0.008-0.075-0.021l0.001 0c-0.049-0.023-0.088-0.044-0.126-0.066l0.007 0.004c-0.045-0.025-0.099-0.049-0.154-0.069l-0.008-0.002c-0.062-0.022-0.136-0.042-0.213-0.057l-0.009-0.001c-0.087-0.015-0.188-0.023-0.29-0.023-0.006 0-0.011 0-0.017 0h0.001c-0.004-0-0.010-0-0.015-0-0.162 0-0.317 0.027-0.462 0.076l0.010-0.003c-0.134 0.046-0.256 0.117-0.356 0.208-0.095 0.090-0.171 0.199-0.222 0.321l-0.002 0.006c-0.051 0.13-0.081 0.281-0.081 0.439s0.030 0.309 0.084 0.448l-0.003-0.008c0.053 0.124 0.135 0.237 0.242 0.332 0.099 0.090 0.219 0.161 0.352 0.208 0.154 0.046 0.316 0.063 0.479 0.052zM44.612 20.49h1.319v0.3h-1.722v-2.634h0.412l-0.009 2.334zM47.303 20.79h-0.412v-2.634h0.412v2.634zM48.84 18.169c0.025 0.012 0.046 0.028 0.063 0.047l0 0 1.766 1.985c-0.001-0.014-0.002-0.030-0.002-0.047s0.001-0.033 0.002-0.049l-0 0.002v-1.963h0.36v2.645h-0.208c-0.004 0-0.009 0-0.014 0-0.027 0-0.054-0.006-0.077-0.016l0.001 0c-0.025-0.013-0.047-0.030-0.065-0.050l-0-0-1.764-1.984v2.048h-0.346v-2.634h0.215c0.023 0 0.047 0.004 0.068 0.012zM54.070 18.156v0.289h-1.463v0.87h1.186v0.279h-1.186v0.9h1.463v0.289h-1.889v-2.628h1.889zM10.782 1.889l18.343 4.496v15.757l-18.343-4.494v-15.76zM9.605 0.545v17.868l20.693 5.075v-17.866l-20.693-5.076z"></path>
<path d="M20.696 31.781l-20.696-5.079v-17.865l20.696 5.077v17.867z"></path>
<path d="M9.948 1.686l18.103 4.44-7.698 6.649-18.107-4.442 7.702-6.647zM9.605 0.545l-9.605 8.292 20.696 5.077 9.603-8.294-20.693-5.075zM21.86 30.776l8.439-7.288-8.439-2.069v9.358z"></path>
</svg>
<svg id="icon-logo2" viewBox="0 0 24 32">
<path d="M10.333 2.203h-0.083c-0.127-0.008-0.254-0.011-0.38-0.014h-0.275c-0.24 0-0.484 0.006-0.727 0.018-0.008-0.001-0.018-0.001-0.027-0.001s-0.019 0-0.029 0.001l0.001-0c-2.331 0.136-4.495 0.719-6.452 1.664l0.102-0.044-0.261 0.126v13.368l0.611-0.207c0.536-0.184 1.107-0.35 1.698-0.504 1.46-0.391 3.141-0.626 4.873-0.649l0.014-0v1.756c-0.231 0.001-0.455 0.008-0.679 0.020l0.036-0.001h-0.051c-1.372 0.077-2.658 0.283-3.896 0.608l0.136-0.030c-1.702 0.433-3.193 1.031-4.578 1.796l0.098-0.050v-17.145c1.353-0.804 2.918-1.46 4.576-1.885l0.124-0.027c1.328-0.357 2.853-0.565 4.426-0.571h0.262c0.309 0.008 0.61 0.022 0.892 0.043 0.814 0.059 1.567 0.184 2.295 0.371l-0.088-0.019v1.729c-0.63-0.155-1.376-0.27-2.139-0.324l-0.043-0.002c-0.149-0.013-0.298-0.025-0.437-0.025zM13.375 3.97c0.383 0.029 0.781 0.042 1.182 0.042 1.657-0.006 3.261-0.223 4.789-0.626l-0.132 0.030c1.701-0.434 3.191-1.033 4.577-1.797l-0.099 0.050v16.839c-1.353 0.804-2.919 1.459-4.576 1.884l-0.125 0.027c-1.328 0.356-2.853 0.563-4.426 0.57h-0.004c-0.032 0-0.071 0-0.109 0-1.154 0-2.275-0.145-3.345-0.417l0.094 0.020v-16.949c0.26 0.060 0.527 0.115 0.799 0.161 0.375 0.067 0.847 0.126 1.324 0.162l0.050 0.003zM21.945 4.1l-0.611 0.205c-0.561 0.189-1.129 0.358-1.698 0.508-1.521 0.407-3.269 0.644-5.071 0.651h-0.004c-0.399 0-0.765-0.010-1.119-0.034l-0.487-0.032v13.752l0.418 0.036c0.388 0.034 0.788 0.051 1.191 0.051 1.423-0.006 2.799-0.195 4.11-0.543l-0.113 0.026c1.198-0.304 2.238-0.689 3.223-1.167l-0.1 0.044 0.261-0.126v-13.372z"></path>
<path d="M1.653 25.917c-0.164-0.17-0.394-0.275-0.648-0.275-0.011 0-0.022 0-0.033 0.001l0.002-0c-0.004-0-0.009-0-0.013-0-0.137 0-0.267 0.027-0.386 0.076l0.007-0.002c-0.232 0.093-0.412 0.275-0.5 0.502l-0.002 0.006c-0.048 0.121-0.072 0.249-0.070 0.379v2.291c-0.006 0.162 0.025 0.322 0.090 0.47 0.054 0.118 0.132 0.222 0.229 0.307 0.091 0.077 0.199 0.133 0.314 0.163 0.112 0.031 0.227 0.047 0.342 0.047 0.127 0.001 0.254-0.026 0.369-0.080 0.344-0.153 0.579-0.491 0.58-0.884v-0.256h-0.6v0.204c0 0.004 0 0.009 0 0.014 0 0.068-0.013 0.134-0.036 0.194l0.001-0.004c-0.020 0.051-0.050 0.094-0.087 0.129l-0 0c-0.069 0.053-0.156 0.086-0.25 0.088h-0c-0.010 0.001-0.023 0.002-0.035 0.002-0.101 0-0.19-0.049-0.245-0.124l-0.001-0.001c-0.050-0.081-0.080-0.179-0.080-0.284 0-0.008 0-0.016 0.001-0.024l-0 0.001v-2.136c-0.004-0.118 0.022-0.235 0.074-0.342 0.055-0.085 0.15-0.14 0.257-0.14 0.012 0 0.025 0.001 0.037 0.002l-0.001-0c0.003-0 0.007-0 0.011-0 0.105 0 0.198 0.051 0.256 0.129l0.001 0.001c0.062 0.081 0.099 0.183 0.099 0.294 0 0.005-0 0.009-0 0.014v-0.001 0.198h0.593v-0.234c0-0.003 0-0.006 0-0.010 0-0.14-0.027-0.275-0.076-0.398l0.003 0.007c-0.047-0.125-0.115-0.233-0.201-0.323l0 0zM5.21 25.891c-0.183-0.155-0.421-0.25-0.681-0.252h-0c-0.122 0.001-0.243 0.022-0.357 0.065-0.247 0.089-0.442 0.271-0.546 0.502l-0.002 0.006c-0.060 0.139-0.091 0.291-0.088 0.444v2.197c-0.004 0.155 0.026 0.308 0.088 0.45 0.054 0.118 0.133 0.223 0.232 0.307 0.092 0.085 0.199 0.151 0.316 0.193 0.106 0.040 0.229 0.064 0.357 0.064 0.262 0 0.501-0.097 0.683-0.258l-0.001 0.001c0.095-0.086 0.173-0.19 0.226-0.307 0.062-0.142 0.091-0.296 0.088-0.45v-2.198c0-0.006 0-0.012 0-0.019 0-0.153-0.032-0.299-0.090-0.431l0.003 0.007c-0.056-0.125-0.132-0.232-0.225-0.321l-0-0zM4.93 28.853c0.001 0.010 0.001 0.022 0.001 0.034 0 0.111-0.046 0.212-0.12 0.284l-0 0c-0.076 0.064-0.174 0.103-0.282 0.103s-0.206-0.039-0.283-0.103l0.001 0.001c-0.074-0.072-0.12-0.172-0.12-0.283 0-0.012 0.001-0.024 0.002-0.036l-0 0.002v-2.198c-0.001-0.010-0.001-0.022-0.001-0.034 0-0.111 0.046-0.212 0.12-0.284l0-0c0.076-0.064 0.174-0.103 0.282-0.103s0.206 0.039 0.283 0.103l-0.001-0.001c0.074 0.072 0.12 0.172 0.12 0.283 0 0.012-0.001 0.024-0.002 0.036l0-0.002v2.197zM9.882 29.834v-4.16h-0.575l-0.757 2.202h-0.010l-0.763-2.201h-0.569v4.159h0.594v-2.53h0.011l0.581 1.788h0.296l0.587-1.788h0.010v2.53h0.594zM13.258 25.966c-0.091-0.103-0.207-0.181-0.336-0.228-0.121-0.041-0.261-0.064-0.407-0.064-0.009 0-0.017 0-0.026 0l0.001-0h-0.883v4.159h0.593v-1.624h0.305c0.185 0.008 0.369-0.030 0.535-0.113 0.136-0.077 0.246-0.184 0.323-0.314l0.002-0.004c0.068-0.11 0.115-0.234 0.136-0.362 0.023-0.156 0.034-0.314 0.032-0.473 0.006-0.199-0.014-0.399-0.058-0.594-0.042-0.15-0.118-0.278-0.219-0.382l0 0zM12.952 27.234c-0.003 0.079-0.023 0.154-0.056 0.22l0.001-0.003c-0.034 0.064-0.087 0.114-0.151 0.145l-0.002 0.001c-0.073 0.034-0.159 0.053-0.249 0.053-0.011 0-0.021-0-0.032-0.001l0.002 0h-0.271v-1.414h0.306c0.009-0 0.019-0.001 0.029-0.001 0.087 0 0.169 0.019 0.242 0.054l-0.003-0.001c0.061 0.036 0.109 0.089 0.138 0.152l0.001 0.002c0.033 0.072 0.050 0.152 0.052 0.231v0.277c0 0.097 0.006 0.197 0 0.286h-0.006zM16.065 25.675h-0.486l-0.917 4.159h0.593l0.174-0.894h0.808l0.174 0.894h0.593l-0.939-4.16zM15.518 28.374l0.292-1.508h0.011l0.29 1.508h-0.592zM19.894 28.181h-0.011l-0.895-2.506h-0.57v4.159h0.593v-2.501h0.012l0.906 2.501h0.557v-4.159h-0.592v2.506zM23.516 25.675l-0.477 1.654h-0.012l-0.477-1.654h-0.627l0.814 2.402v1.758h0.593v-1.759l0.814-2.401h-0.628zM0 31.009h0.286v0.801h0.194v-0.801h0.284v-0.164h-0.763v0.164zM2.401 30.844l-0.374 0.966h0.206l0.080-0.22h0.385l0.083 0.22h0.211l-0.384-0.966h-0.206zM2.371 31.428l0.131-0.358 0.131 0.358h-0.263zM4.775 31.454h0.223v0.124c-0.062 0.050-0.142 0.081-0.229 0.081h-0c-0.004 0-0.009 0-0.014 0-0.077 0-0.146-0.036-0.191-0.092l-0-0c-0.045-0.064-0.072-0.144-0.072-0.23 0-0.008 0-0.015 0.001-0.023l-0 0.001c0-0.215 0.093-0.322 0.278-0.322 0.006-0.001 0.013-0.001 0.020-0.001 0.095 0 0.175 0.065 0.198 0.154l0 0.001 0.191-0.037c-0.041-0.189-0.177-0.284-0.409-0.284-0.004-0-0.009-0-0.013-0-0.125 0-0.238 0.047-0.324 0.124l0-0c-0.087 0.086-0.14 0.204-0.14 0.336 0 0.013 0 0.025 0.002 0.038l-0-0.002c-0 0.007-0 0.015-0 0.022 0 0.13 0.047 0.249 0.125 0.341l-0.001-0.001c0.085 0.088 0.204 0.142 0.336 0.142 0.011 0 0.021-0 0.032-0.001l-0.001 0c0.005 0 0.010 0 0.015 0 0.152 0 0.291-0.059 0.394-0.154l-0 0v-0.38h-0.418v0.163zM7.199 30.844h-0.196v0.966h0.676v-0.165h-0.481v-0.801zM9.249 30.844h-0.196v0.966h0.196v-0.966zM11.253 31.489l-0.396-0.645h-0.189v0.966h0.181v-0.632l0.388 0.631h0.194v-0.966h-0.179v0.645zM13.064 31.384h0.481v-0.164h-0.481v-0.212h0.517v-0.164h-0.713v0.966h0.733v-0.165h-0.537v-0.261zM17.456 31.225h-0.38v-0.38h-0.193v0.966h0.193v-0.423h0.38v0.423h0.194v-0.966h-0.194v0.38zM19.279 31.384h0.483v-0.164h-0.483v-0.212h0.519v-0.164h-0.712v0.966h0.732v-0.165h-0.537v-0.261zM21.75 31.384c0.168-0.025 0.254-0.115 0.254-0.268 0.001-0.008 0.002-0.018 0.002-0.027 0-0.077-0.038-0.145-0.096-0.187l-0.001-0c-0.071-0.037-0.156-0.058-0.245-0.058-0.013 0-0.026 0-0.039 0.001l0.002-0h-0.409v0.966h0.194v-0.405h0.038c0.005-0 0.010-0 0.016-0 0.038 0 0.074 0.008 0.107 0.023l-0.002-0.001c0.028 0.017 0.052 0.042 0.069 0.071l0.211 0.307h0.232l-0.118-0.189c-0.053-0.094-0.125-0.172-0.211-0.23l-0.002-0.002zM21.554 31.251h-0.143v-0.243h0.153c0.012-0.001 0.026-0.002 0.041-0.002 0.056 0 0.109 0.009 0.16 0.026l-0.004-0.001c0.026 0.023 0.043 0.057 0.043 0.095 0 0.022-0.006 0.043-0.016 0.061l0-0.001c-0.009 0.017-0.022 0.031-0.036 0.042l-0 0c-0.048 0.015-0.104 0.024-0.161 0.024-0.013 0-0.025-0-0.038-0.001l0.002 0zM23.614 31.384h0.481v-0.164h-0.481v-0.212h0.519v-0.164h-0.715v0.966h0.733v-0.165h-0.537v-0.261z"></path>
</svg>
<svg id="icon-logo5" viewBox="0 0 43 32">
<path d="M3.239 26.373c0.166 0.188 0.254 0.424 0.25 0.665 0.001 0.015 0.001 0.033 0.001 0.050 0 0.149-0.033 0.29-0.093 0.416l0.003-0.006c-0.072 0.152-0.172 0.279-0.296 0.378l-0.002 0.002c-0.282 0.194-0.631 0.31-1.007 0.31-0.041 0-0.082-0.001-0.123-0.004l0.006 0h-1.977v-4.214h1.936c0.034-0.002 0.074-0.004 0.115-0.004 0.356 0 0.688 0.106 0.965 0.287l-0.007-0.004c0.125 0.097 0.225 0.218 0.289 0.354 0.065 0.138 0.095 0.286 0.086 0.436 0.011 0.232-0.068 0.461-0.225 0.644-0.15 0.168-0.358 0.283-0.59 0.33 0.262 0.044 0.499 0.172 0.667 0.361zM0.92 25.737h0.828c0.188 0.012 0.374-0.037 0.526-0.14 0.060-0.050 0.108-0.113 0.14-0.184l0.001-0.003c0.024-0.054 0.038-0.118 0.038-0.185 0-0.014-0.001-0.028-0.002-0.042l0 0.002c0.001-0.011 0.001-0.023 0.001-0.035 0-0.068-0.014-0.133-0.040-0.192l0.001 0.003c-0.033-0.075-0.079-0.137-0.138-0.187l-0.001-0.001c-0.134-0.091-0.298-0.145-0.476-0.145-0.023 0-0.046 0.001-0.069 0.003l0.003-0h-0.815v1.106zM2.355 27.353c0.065-0.051 0.116-0.116 0.151-0.19l0.001-0.003c0.028-0.059 0.044-0.128 0.044-0.202 0-0.012-0-0.023-0.001-0.035l0 0.002c0.001-0.009 0.001-0.020 0.001-0.031 0-0.075-0.017-0.147-0.047-0.21l0.001 0.003c-0.037-0.078-0.090-0.143-0.154-0.193l-0.001-0.001c-0.142-0.097-0.318-0.154-0.507-0.154-0.019 0-0.039 0.001-0.058 0.002l0.003-0h-0.868v1.16h0.88c0.197 0.010 0.394-0.041 0.556-0.146zM7.197 28.185l-1.076-1.648h-0.405v1.648h-0.927v-4.215h1.755c0.037-0.003 0.081-0.004 0.125-0.004 0.413 0 0.794 0.136 1.1 0.366l-0.005-0.003c0.245 0.229 0.394 0.53 0.417 0.85 0.002 0.026 0.003 0.057 0.003 0.088 0 0.307-0.109 0.589-0.291 0.808l0.002-0.002c-0.218 0.224-0.506 0.378-0.829 0.427l-0.008 0.001 1.147 1.684h-1.008zM5.715 25.963h0.758c0.526 0 0.79-0.212 0.79-0.638 0.001-0.010 0.001-0.022 0.001-0.034 0-0.080-0.016-0.156-0.045-0.225l0.001 0.004c-0.036-0.086-0.087-0.159-0.15-0.218l-0-0c-0.144-0.109-0.326-0.174-0.523-0.174-0.026 0-0.051 0.001-0.077 0.003l0.003-0h-0.767l0.009 1.283zM12.262 27.336h-1.846l-0.326 0.849h-0.972l1.695-4.168h1.051l1.689 4.168h-0.971l-0.319-0.848zM12.015 26.698l-0.675-1.779-0.675 1.779h1.349zM18.602 28.185h-0.919l-2.063-2.866v2.866h-0.918v-4.216h0.918l2.063 2.883v-2.883h0.919v4.216zM23.852 27.176c-0.191 0.318-0.48 0.577-0.833 0.744-0.358 0.168-0.777 0.267-1.219 0.267-0.026 0-0.053-0-0.079-0.001l0.004 0h-1.637v-4.215h1.637c0.023-0.001 0.050-0.001 0.077-0.001 0.441 0 0.859 0.096 1.235 0.267l-0.019-0.008c0.352 0.163 0.642 0.419 0.832 0.735 0.189 0.343 0.288 0.722 0.288 1.106s-0.099 0.763-0.288 1.106zM22.8 27.075c0.25-0.261 0.404-0.616 0.406-1.006v-0c0-0.369-0.144-0.726-0.406-1.006-0.285-0.226-0.65-0.362-1.047-0.362-0.037 0-0.074 0.001-0.11 0.004l0.005-0h-0.639v2.729h0.639c0.032 0.002 0.069 0.003 0.106 0.003 0.396 0 0.761-0.136 1.050-0.364l-0.004 0.003zM12.838 0.522s11.873 4.104 11.621 10.043v10.045s-11.864-4.106-11.617-10.045l-0.004-10.043zM35.037 18.259c2.243-1.413 4.836-2.288 7.544-2.545v-3.146c-3.12 1.102-5.767 3.098-7.544 5.691z"></path>
<path d="M33.69 19.207c1.835-3.384 5.017-5.995 8.891-7.297v-9.061s-16.909 5.846-16.552 14.304v14.302s0.754-0.261 1.939-0.752c0-0.457 0-0.918 0.054-1.382 0.349-3.926 2.388-7.564 5.667-10.115z"></path>
<path d="M32.082 24.52c0.089-0.992 0.287-1.973 0.592-2.928-2.043 2.203-3.279 4.936-3.536 7.816-0.025 0.272-0.039 0.543-0.045 0.824 1.41-0.617 2.478-1.142 3.524-1.703l-0.273 0.133c-0.3-1.362-0.388-2.757-0.263-4.142zM32.754 24.571c-0.033 0.348-0.052 0.752-0.052 1.161 0 0.917 0.095 1.811 0.276 2.674l-0.015-0.084c4.62-2.531 9.811-6.442 9.61-11.168v-0.412c-3.301 0.338-6.388 1.659-8.79 3.76-0.53 1.19-0.895 2.571-1.026 4.019l-0.004 0.051z"></path>
</svg>
<svg id="icon-logo4" viewBox="0 0 65 32">
<path stroke-linejoin="miter" stroke-linecap="butt" stroke-miterlimit="4" stroke-width="0.7619" d="M10.014 10.364h0.002c1.661 0 2.927 1.186 2.927 2.559v0.002c0 1.372-1.267 2.559-2.927 2.559h-0.002c-1.66 0-2.927-1.187-2.927-2.559v-0.002c0-1.373 1.267-2.56 2.927-2.56zM16.053 21c-0.149 0.021-0.28 0.038-0.389 0.052v-12.008c0.005-2.139 0.963-4.201 2.683-5.73 1.722-1.528 4.063-2.396 6.514-2.4 2.45 0.005 4.79 0.873 6.51 2.402 1.719 1.528 2.677 3.589 2.682 5.727v0.002c0 2.504-1.134 4.503-2.871 6.109-1.745 1.613-4.088 2.817-6.458 3.703-2.367 0.886-4.739 1.448-6.521 1.787-0.451 0.098-1.182 0.223-1.919 0.329l-0.231 0.027zM8.788 25.56c0-0.392-0.132-0.771-0.37-1.090-0.243-0.315-0.567-0.557-0.942-0.695l-0.015-0.005c-0.238-0.090-0.513-0.142-0.8-0.142-0.144 0-0.284 0.013-0.421 0.038l0.014-0.002c-0.419 0.074-0.786 0.256-1.082 0.517l0.002-0.002c-0.3 0.267-0.51 0.612-0.597 0.995-0.027 0.116-0.043 0.249-0.043 0.386 0 0.274 0.062 0.533 0.173 0.764l-0.005-0.011c0.168 0.358 0.446 0.656 0.794 0.862 0.239 0.142 0.506 0.238 0.782 0.284v0.037h0.381c0.274 0 0.546-0.048 0.802-0.142s0.489-0.233 0.688-0.411c0.2-0.178 0.36-0.391 0.47-0.629s0.168-0.495 0.166-0.756zM8.788 25.56l-0.381 0.002h0.381v-0.002zM12.804 17.358c0.050-0.008 0.096-0.013 0.139-0.019v8.222c-0.005 1.454-0.655 2.856-1.829 3.899-1.175 1.044-2.775 1.638-4.453 1.643-1.678-0.005-3.278-0.6-4.453-1.643s-1.824-2.446-1.829-3.899c0-1.702 0.769-3.064 1.96-4.165 1.198-1.108 2.812-1.939 4.455-2.553 1.639-0.613 3.282-1.003 4.518-1.238 0.617-0.118 1.131-0.197 1.49-0.247z"></path>
<path d="M18.842 24.336v3.25h-0.67v-3.251h0.67zM20.137 25.725v0.522h-1.478v-0.522h1.478zM20.293 24.336v0.525h-1.634v-0.525h1.634zM23.351 25.886v0.154c0 0.247-0.034 0.469-0.101 0.665-0.064 0.194-0.161 0.361-0.285 0.504l0.002-0.002c-0.122 0.137-0.267 0.242-0.437 0.315-0.168 0.073-0.355 0.11-0.56 0.11s-0.391-0.037-0.561-0.11c-0.172-0.076-0.318-0.182-0.436-0.314l-0.001-0.001c-0.124-0.141-0.222-0.309-0.285-0.492l-0.003-0.010c-0.064-0.19-0.101-0.408-0.101-0.636 0-0.010 0-0.020 0-0.030l-0 0.002v-0.155c0-0.248 0.034-0.47 0.101-0.665s0.162-0.363 0.283-0.502c0.119-0.134 0.265-0.241 0.429-0.314l0.008-0.003c0.17-0.073 0.357-0.109 0.561-0.109 0.206 0 0.392 0.036 0.56 0.109 0.17 0.073 0.315 0.179 0.437 0.317 0.123 0.139 0.219 0.306 0.286 0.503 0.069 0.194 0.103 0.416 0.103 0.665zM22.674 26.040v-0.158c0-0.173-0.015-0.325-0.046-0.456-0.028-0.125-0.076-0.236-0.141-0.334l0.002 0.004c-0.057-0.084-0.132-0.152-0.22-0.199l-0.003-0.002c-0.084-0.044-0.184-0.069-0.29-0.069-0.004 0-0.008 0-0.012 0h0.001c-0.114 0-0.213 0.023-0.302 0.069-0.090 0.049-0.165 0.117-0.22 0.199l-0.001 0.002c-0.061 0.095-0.108 0.206-0.134 0.324l-0.001 0.007c-0.030 0.129-0.047 0.278-0.047 0.43 0 0.009 0 0.018 0 0.027v-0.001 0.158c0 0.171 0.015 0.322 0.047 0.455 0.030 0.131 0.077 0.242 0.138 0.333 0.057 0.085 0.132 0.153 0.22 0.201l0.003 0.002c0.088 0.046 0.188 0.069 0.302 0.069s0.213-0.023 0.301-0.069c0.091-0.049 0.165-0.118 0.22-0.201l0.001-0.002c0.061-0.096 0.108-0.207 0.135-0.326l0.001-0.007c0.030-0.133 0.046-0.284 0.046-0.455zM25.525 26.736c0-0.002 0-0.004 0-0.007 0-0.054-0.010-0.105-0.028-0.152l0.001 0.003c-0.020-0.052-0.052-0.096-0.094-0.129l-0.001-0c-0.056-0.046-0.12-0.086-0.188-0.117l-0.005-0.002c-0.087-0.040-0.194-0.081-0.304-0.115l-0.019-0.005c-0.171-0.055-0.31-0.109-0.445-0.17l0.026 0.010c-0.133-0.060-0.247-0.13-0.352-0.211l0.004 0.003c-0.096-0.076-0.175-0.169-0.234-0.274l-0.002-0.005c-0.054-0.102-0.085-0.224-0.085-0.353 0-0.006 0-0.011 0-0.017v0.001c-0-0.003-0-0.007-0-0.010 0-0.131 0.033-0.254 0.091-0.362l-0.002 0.004c0.059-0.112 0.143-0.207 0.25-0.286 0.107-0.081 0.234-0.142 0.379-0.185 0.148-0.043 0.309-0.065 0.485-0.065 0.24 0 0.449 0.043 0.627 0.13s0.317 0.204 0.415 0.354c0.1 0.151 0.15 0.322 0.15 0.516h-0.665c0-0.003 0-0.007 0-0.010 0-0.088-0.023-0.171-0.062-0.242l0.001 0.003c-0.041-0.074-0.102-0.133-0.176-0.17l-0.002-0.001c-0.081-0.040-0.176-0.064-0.277-0.064-0.008 0-0.016 0-0.023 0l0.001-0c-0.007-0-0.014-0-0.022-0-0.096 0-0.188 0.020-0.272 0.055l0.005-0.002c-0.072 0.030-0.131 0.078-0.174 0.14l-0.001 0.001c-0.036 0.054-0.058 0.12-0.058 0.192 0 0.002 0 0.003 0 0.005v-0c0 0.055 0.014 0.105 0.040 0.149 0.034 0.050 0.075 0.091 0.123 0.124l0.002 0.001c0.055 0.039 0.122 0.076 0.203 0.11s0.174 0.068 0.28 0.101c0.177 0.053 0.332 0.114 0.466 0.181 0.136 0.067 0.248 0.142 0.339 0.226s0.16 0.178 0.206 0.283 0.069 0.226 0.069 0.36c0 0.009 0.001 0.020 0.001 0.031 0 0.259-0.126 0.488-0.32 0.63l-0.002 0.002c-0.104 0.078-0.229 0.136-0.373 0.176-0.14 0.039-0.3 0.061-0.466 0.061-0.006 0-0.013-0-0.019-0h0.001c-0 0-0 0-0.001 0-0.169 0-0.332-0.023-0.488-0.066l0.013 0.003c-0.162-0.045-0.304-0.111-0.432-0.198l0.005 0.003c-0.125-0.086-0.227-0.197-0.301-0.326l-0.003-0.005c-0.076-0.134-0.114-0.293-0.114-0.475h0.672c0 0.101 0.015 0.187 0.047 0.257 0.030 0.068 0.074 0.126 0.13 0.169l0.001 0.001c0.058 0.043 0.127 0.075 0.202 0.093l0.004 0.001c0.080 0.019 0.168 0.029 0.264 0.029 0.007 0 0.015 0 0.023 0 0.094 0 0.185-0.018 0.267-0.052l-0.005 0.002c0.132-0.053 0.223-0.18 0.223-0.328 0-0.002 0-0.003-0-0.005v0zM28.103 24.336v3.25h-0.667v-3.251h0.667zM29.103 24.336v0.525h-2.651v-0.525h2.651zM31.666 27.064v0.523h-1.73v-0.523h1.73zM30.155 24.336v3.25h-0.67v-3.251h0.67zM31.44 25.66v0.509h-1.504v-0.509h1.504zM31.663 24.336v0.525h-1.727v-0.525h1.727zM32.056 24.336h1.211c0.249 0 0.462 0.038 0.642 0.112s0.318 0.184 0.414 0.33c0.097 0.146 0.145 0.325 0.145 0.538 0 0.174-0.029 0.324-0.088 0.45-0.059 0.125-0.143 0.228-0.246 0.309l-0.002 0.001c-0.107 0.081-0.23 0.148-0.364 0.193l-0.009 0.003-0.212 0.112h-1.054l-0.005-0.523h0.784c0.006 0 0.014 0 0.022 0 0.098 0 0.191-0.023 0.274-0.064l-0.004 0.002c0.075-0.039 0.135-0.099 0.173-0.172l0.001-0.002c0.038-0.072 0.060-0.157 0.060-0.247 0-0.004-0-0.008-0-0.013v0.001c0-0.005 0-0.010 0-0.016 0-0.093-0.021-0.18-0.060-0.258l0.002 0.003c-0.039-0.076-0.1-0.136-0.175-0.173l-0.002-0.001c-0.081-0.039-0.175-0.061-0.276-0.061-0.008 0-0.015 0-0.023 0l0.001-0h-0.542v2.726h-0.67v-3.251zM33.874 27.586l-0.741-1.448 0.708-0.005 0.75 1.422v0.030h-0.716zM37.389 26.428h-0.828v-0.523h0.828c0.008 0 0.017 0.001 0.027 0.001 0.104 0 0.202-0.023 0.29-0.065l-0.004 0.002c0.077-0.040 0.138-0.102 0.176-0.177l0.001-0.002c0.035-0.078 0.055-0.168 0.055-0.263s-0.020-0.186-0.057-0.267l0.002 0.004c-0.038-0.084-0.099-0.153-0.175-0.2l-0.002-0.001c-0.083-0.048-0.182-0.077-0.288-0.077-0.009 0-0.017 0-0.026 0.001l0.001-0h-0.596v2.726h-0.67v-3.25h1.266c0.254 0 0.472 0.046 0.654 0.139 0.183 0.091 0.323 0.216 0.42 0.377s0.145 0.344 0.145 0.552c0 0.21-0.048 0.391-0.145 0.545-0.097 0.152-0.236 0.271-0.419 0.354s-0.4 0.125-0.655 0.125zM41.25 27.064v0.523h-1.73v-0.523h1.73zM39.739 24.336v3.25h-0.67v-3.251h0.67zM41.025 25.66v0.509h-1.504v-0.509h1.504zM41.248 24.336v0.525h-1.727v-0.525h1.727zM43.139 24.336v3.25h-0.667v-3.251h0.667zM44.139 24.336v0.525h-2.651v-0.525h2.651zM46.702 27.064v0.523h-1.73v-0.523h1.73zM45.19 24.336v3.25h-0.67v-3.251h0.67zM46.476 25.661v0.509h-1.505v-0.509h1.505zM46.699 24.337v0.525h-1.728v-0.525h1.728zM47.092 24.337h1.213c0.248 0 0.462 0.038 0.64 0.112 0.181 0.074 0.319 0.184 0.416 0.33s0.145 0.325 0.145 0.538c0 0.174-0.030 0.324-0.089 0.45-0.059 0.124-0.143 0.228-0.246 0.309l-0.002 0.001c-0.107 0.082-0.231 0.148-0.364 0.193l-0.009 0.003-0.212 0.112h-1.054l-0.004-0.523h0.783c0.007 0 0.015 0 0.022 0 0.098 0 0.191-0.023 0.274-0.064l-0.004 0.002c0.075-0.040 0.134-0.099 0.173-0.172l0.001-0.002c0.038-0.072 0.061-0.158 0.061-0.249 0-0.004-0-0.007-0-0.011v0.001c0-0.004 0-0.009 0-0.014 0-0.093-0.022-0.181-0.060-0.26l0.002 0.003c-0.039-0.076-0.1-0.136-0.174-0.173l-0.002-0.001c-0.081-0.039-0.176-0.061-0.276-0.061-0.008 0-0.015 0-0.023 0l0.001-0h-0.542v2.726h-0.67v-3.252zM48.909 27.587l-0.741-1.448 0.709-0.005 0.749 1.422v0.030h-0.716zM51.713 26.737c0-0.002 0-0.004 0-0.007 0-0.054-0.010-0.105-0.028-0.152l0.001 0.003c-0.020-0.052-0.052-0.096-0.093-0.129l-0.001-0c-0.056-0.046-0.12-0.086-0.189-0.117l-0.005-0.002c-0.087-0.040-0.194-0.081-0.304-0.115l-0.019-0.005c-0.171-0.055-0.31-0.109-0.445-0.17l0.026 0.010c-0.133-0.060-0.248-0.13-0.353-0.211l0.004 0.003c-0.096-0.076-0.175-0.169-0.234-0.274l-0.002-0.005c-0.054-0.102-0.086-0.224-0.086-0.353 0-0.006 0-0.011 0-0.017v0.001c-0-0.003-0-0.007-0-0.010 0-0.131 0.033-0.254 0.091-0.362l-0.002 0.004c0.060-0.112 0.143-0.207 0.251-0.286 0.107-0.081 0.233-0.142 0.379-0.185s0.309-0.065 0.484-0.065c0.24 0 0.45 0.043 0.627 0.13 0.179 0.086 0.317 0.204 0.415 0.354 0.1 0.151 0.15 0.322 0.15 0.516h-0.665c0-0.003 0-0.007 0-0.010 0-0.088-0.023-0.171-0.062-0.242l0.001 0.003c-0.041-0.074-0.102-0.133-0.176-0.17l-0.002-0.001c-0.081-0.040-0.176-0.064-0.277-0.064-0.008 0-0.015 0-0.023 0l0.001-0c-0.007-0-0.015-0-0.023-0-0.096 0-0.188 0.020-0.272 0.055l0.005-0.002c-0.072 0.030-0.132 0.078-0.174 0.14l-0.001 0.001c-0.036 0.054-0.058 0.12-0.058 0.192 0 0.002 0 0.003 0 0.005v-0c0 0.055 0.014 0.105 0.040 0.149 0.034 0.050 0.075 0.091 0.123 0.124l0.002 0.001c0.055 0.039 0.123 0.076 0.203 0.11s0.173 0.068 0.279 0.101c0.177 0.053 0.332 0.114 0.466 0.181 0.136 0.067 0.248 0.142 0.339 0.226s0.16 0.178 0.206 0.283 0.069 0.226 0.069 0.36c0 0.141-0.027 0.267-0.082 0.379s-0.135 0.206-0.238 0.283c-0.104 0.078-0.229 0.136-0.373 0.176s-0.305 0.061-0.484 0.061c-0.161 0-0.32-0.021-0.475-0.062-0.162-0.045-0.304-0.111-0.432-0.198l0.005 0.003c-0.125-0.086-0.227-0.197-0.301-0.326l-0.003-0.005c-0.076-0.134-0.114-0.293-0.114-0.475h0.672c0 0.101 0.015 0.187 0.047 0.257 0.030 0.068 0.074 0.126 0.13 0.169l0.001 0.001c0.058 0.043 0.127 0.075 0.202 0.093l0.004 0.001c0.081 0.019 0.168 0.029 0.264 0.029 0.007 0 0.015 0 0.023 0 0.094 0 0.185-0.018 0.267-0.052l-0.005 0.002c0.132-0.053 0.223-0.18 0.223-0.328 0-0.002 0-0.003-0-0.005v0z"></path>
<path d="M18.842 24.336h0.762v-0.762h-0.762v0.762zM18.842 27.586v0.762h0.762v-0.762h-0.762zM18.172 27.586h-0.762v0.762h0.762v-0.762zM18.172 24.336v-0.762h-0.762v0.762h0.762zM20.136 25.725h0.762v-0.762h-0.762v0.762zM20.136 26.247v0.762h0.762v-0.762h-0.762zM18.658 26.247h-0.762v0.762h0.762v-0.762zM18.658 25.725v-0.762h-0.762v0.762h0.762zM20.293 24.336h0.762v-0.762h-0.762v0.762zM20.293 24.861v0.762h0.762v-0.762h-0.762zM18.659 24.861h-0.762v0.762h0.762v-0.762zM18.659 24.336v-0.762h-0.762v0.762h0.762zM18.080 24.336v3.25h1.524v-3.251h-1.524zM18.842 26.824h-0.67v1.524h0.67v-1.524zM18.934 27.586v-3.251h-1.524v3.25h1.524zM18.172 25.098h0.67v-1.524h-0.67v1.524zM19.374 25.724v0.523h1.524v-0.522h-1.524zM20.136 25.485h-1.478v1.524h1.478v-1.524zM19.42 26.247v-0.522h-1.524v0.522h1.524zM18.658 26.487h1.478v-1.524h-1.478v1.524zM19.531 24.336v0.525h1.524v-0.525h-1.524zM20.293 24.099h-1.634v1.524h1.634v-1.524zM19.421 24.861v-0.525h-1.524v0.525h1.524zM18.659 25.098h1.634v-1.524h-1.634v1.524zM22.967 27.207l0.569 0.507 0.002-0.003-0.571-0.504zM22.53 27.522l-0.301-0.7-0.002 0.002 0.303 0.699zM21.41 27.522l-0.304 0.699 0.002 0.002 0.301-0.701zM20.971 27.207l-0.568 0.507 0.003 0.003 0.565-0.51zM20.683 26.704l-0.721 0.246 0.002 0.005 0.719-0.251zM20.683 25.22l0.721 0.248v-0.002l-0.721-0.246zM20.967 24.718l-0.568-0.507-0.003 0.004 0.571 0.504zM21.404 24.401l-0.3-0.7-0.002 0.002 0.302 0.699zM22.525 24.401l-0.303 0.699 0.002 0.001 0.301-0.7zM22.962 24.718l-0.571 0.504 0.003 0.003 0.568-0.507zM23.248 25.221l-0.721 0.245 0.002 0.007 0.718-0.253zM22.266 24.894l-0.354 0.674 0.009 0.005 0.345-0.679zM21.664 24.894l0.35 0.677 0.004-0.002-0.354-0.674zM21.443 25.095l-0.629-0.43-0.005 0.008 0.634 0.422zM21.306 26.494l-0.741 0.175v0.002l0.742-0.177zM21.445 26.827l-0.632 0.425 0.004 0.005 0.629-0.43zM22.491 26.827l0.634 0.423 0.003-0.005-0.637-0.418zM22.628 26.494l0.741 0.177v-0.002l-0.741-0.175zM22.59 25.885v0.155h1.524v-0.155h-1.524zM22.59 26.040c0 0.178-0.025 0.315-0.061 0.419l1.443 0.491c0.099-0.289 0.141-0.596 0.141-0.91h-1.524zM22.529 26.459c-0.030 0.094-0.075 0.175-0.134 0.245l0.001-0.001 1.143 1.008c0.197-0.222 0.338-0.48 0.434-0.76l-1.442-0.491zM22.398 26.7c-0.046 0.052-0.103 0.093-0.167 0.121l-0.003 0.001 0.602 1.4c0.271-0.117 0.509-0.287 0.706-0.508l-1.138-1.013zM22.226 26.822c-0.071 0.030-0.154 0.047-0.241 0.047-0.005 0-0.011-0-0.016-0l0.001 0v1.524c0.297 0 0.588-0.053 0.863-0.173l-0.606-1.397zM21.97 26.869c-0.004 0-0.009 0-0.015 0-0.088 0-0.172-0.018-0.249-0.050l0.004 0.002-0.602 1.4c0.274 0.117 0.564 0.171 0.861 0.171v-1.524zM21.712 26.823c-0.069-0.030-0.128-0.073-0.175-0.126l-0-0-1.131 1.021c0.196 0.217 0.431 0.386 0.699 0.503l0.606-1.397zM21.54 26.699c-0.059-0.069-0.106-0.151-0.136-0.24l-0.001-0.005-1.438 0.501c0.098 0.28 0.241 0.537 0.439 0.759l1.137-1.015zM21.405 26.459c-0.038-0.117-0.060-0.252-0.060-0.392 0-0.010 0-0.019 0-0.029l-0 0.001h-1.524c0 0.315 0.043 0.622 0.142 0.91l1.442-0.491zM21.345 26.040v-0.155h-1.524v0.155h1.524zM21.345 25.885c0-0.181 0.024-0.316 0.059-0.418l-1.442-0.495c-0.099 0.29-0.142 0.597-0.142 0.913h1.524zM21.405 25.466c0.030-0.094 0.075-0.175 0.134-0.245l-0.001 0.001-1.143-1.008c-0.196 0.222-0.338 0.48-0.433 0.76l1.442 0.491zM21.535 25.225c0.047-0.053 0.104-0.095 0.169-0.124l0.003-0.001-0.606-1.398c-0.271 0.117-0.507 0.289-0.703 0.508l1.137 1.015zM21.705 25.101c0.072-0.030 0.155-0.047 0.243-0.047 0.006 0 0.011 0 0.017 0l-0.001-0v-1.524c-0.296 0-0.587 0.053-0.861 0.171l0.602 1.4zM21.964 25.054c0.114 0 0.197 0.020 0.258 0.046l0.606-1.397c-0.249-0.109-0.539-0.172-0.844-0.172-0.007 0-0.013 0-0.020 0h0.001v1.524zM22.224 25.101c0.066 0.028 0.122 0.069 0.167 0.121l0 0.001 1.143-1.008c-0.192-0.218-0.429-0.391-0.696-0.508l-0.013-0.005-0.602 1.4zM22.394 25.225c0.058 0.068 0.104 0.148 0.132 0.236l0.001 0.005 1.442-0.491c-0.1-0.295-0.249-0.55-0.441-0.767l0.002 0.002-1.137 1.015zM22.53 25.473c0.035 0.099 0.059 0.233 0.059 0.412h1.524c0-0.317-0.043-0.626-0.146-0.917l-1.438 0.505zM23.436 26.040v-0.158h-1.524v0.158h1.524zM23.436 25.881c0-0.216-0.019-0.43-0.067-0.632l-1.483 0.354c0.014 0.059 0.026 0.15 0.026 0.279h1.524zM23.369 25.249c-0.051-0.222-0.138-0.417-0.255-0.59l0.004 0.006-1.257 0.86c-0.003-0.004 0.011 0.015 0.026 0.077l1.483-0.354zM23.118 24.665c-0.129-0.19-0.299-0.342-0.498-0.446l-0.008-0.004-0.691 1.358c-0.024-0.012-0.044-0.028-0.061-0.048l-0-0 1.259-0.86zM22.62 24.22c-0.187-0.099-0.409-0.157-0.644-0.157-0.004 0-0.008 0-0.012 0h0.001v1.524c0.005 0 0 0-0.011-0.002-0.016-0.004-0.030-0.009-0.044-0.016l0.001 0 0.709-1.349zM21.965 24.063c-0.219 0-0.444 0.046-0.655 0.157l0.709 1.349c-0.012 0.007-0.027 0.012-0.042 0.016l-0.001 0c-0.011 0.003-0.015 0.002-0.010 0.002v-1.524zM21.314 24.218c-0.204 0.108-0.372 0.259-0.497 0.442l-0.003 0.005 1.257 0.86s-0.005 0.007-0.015 0.016c-0.012 0.011-0.026 0.021-0.041 0.029l-0.001 0.001-0.701-1.353zM20.808 24.673c-0.109 0.165-0.193 0.358-0.241 0.564l-0.002 0.012 1.483 0.354c0.015-0.065 0.030-0.087 0.029-0.084l-1.268-0.846zM20.565 25.249c-0.043 0.181-0.067 0.388-0.067 0.602 0 0.011 0 0.022 0 0.032v-0.002h1.524c0-0.13 0.012-0.219 0.026-0.279l-1.482-0.354zM20.498 25.881v0.158h1.524v-0.158h-1.524zM20.498 26.040c0 0.216 0.020 0.428 0.067 0.63l1.483-0.35c-0.017-0.077-0.027-0.166-0.027-0.257 0-0.008 0-0.016 0-0.024l-0 0.001h-1.524zM20.565 26.672c0.047 0.2 0.125 0.398 0.247 0.581l1.265-0.85s-0.004-0.005-0.009-0.019c-0.008-0.018-0.015-0.040-0.020-0.063l-0.001-0.003-1.482 0.354zM20.815 27.257c0.125 0.183 0.29 0.338 0.498 0.448l0.709-1.349c0.014 0.007 0.027 0.015 0.037 0.025 0.009 0.008 0.014 0.015 0.014 0.015l-1.259 0.86zM21.314 27.705c0.212 0.111 0.437 0.156 0.655 0.156v-1.524c-0.005 0 0 0 0.011 0.002s0.027 0.008 0.043 0.016l-0.709 1.349zM21.969 27.861c0.219 0 0.445-0.046 0.656-0.156l-0.709-1.349c0.012-0.007 0.026-0.013 0.041-0.017l0.001-0c0.011-0.002 0.015-0.002 0.011-0.002v1.524zM22.625 27.705c0.21-0.11 0.376-0.269 0.501-0.455l-1.268-0.846c0.016-0.020 0.036-0.036 0.058-0.048l0.001-0 0.709 1.349zM23.128 27.245c0.118-0.18 0.194-0.376 0.241-0.574l-1.483-0.354c-0.015 0.065-0.030 0.090-0.032 0.091l1.274 0.836zM23.369 26.67c0.043-0.182 0.067-0.39 0.067-0.604 0-0.009-0-0.018-0-0.027v0.001h-1.524c0 0.126-0.011 0.217-0.026 0.28l1.483 0.35zM25.499 26.58l-0.721 0.248 0.005 0.014 0.005 0.014 0.711-0.275zM25.404 26.45l-0.5 0.574 0.011 0.009 0.489-0.584zM24.886 26.211l-0.234 0.725 0.006 0.002 0.229-0.727zM24.467 26.051l-0.315 0.693 0.003 0.001 0.312-0.695zM24.119 25.843l-0.478 0.593 0.005 0.004 0.005 0.005 0.469-0.602zM23.883 25.564l-0.672 0.36 0.004 0.008 0.667-0.367zM23.886 24.827l0.67 0.362 0.002-0.004-0.673-0.358zM24.136 24.542l0.452 0.613 0.005-0.004-0.457-0.61zM24.516 24.357l-0.213-0.731h-0.002l0.216 0.731zM26.043 24.776l-0.638 0.417 0.003 0.005 0.635-0.421zM26.193 25.291v0.762h0.762v-0.762h-0.762zM25.528 25.291h-0.762v0.762h0.762v-0.762zM25.467 25.042l-0.673 0.357 0.005 0.008 0.005 0.008 0.664-0.373zM25.288 24.87l-0.356 0.674 0.005 0.002 0.35-0.677zM24.699 24.861l0.308 0.696 0.006-0.002 0.005-0.002-0.32-0.692zM24.525 25.001l0.634 0.423 0.005-0.008-0.639-0.415zM24.507 25.347l-0.654 0.392 0.005 0.008 0.005 0.008 0.644-0.408zM25.115 25.682l-0.226 0.728 0.005 0.002 0.221-0.729zM25.581 25.863l-0.341 0.682 0.003 0.002 0.338-0.683zM24.541 27.569l-0.203 0.734 0.007 0.002 0.197-0.736zM24.114 27.374l-0.43 0.629 0.004 0.002 0.427-0.632zM23.697 26.568v-0.762h-0.762v0.762h0.762zM24.369 26.568h0.762v-0.762h-0.762v0.762zM24.547 26.995l-0.462 0.606 0.008 0.005 0.454-0.611zM24.753 27.089l-0.181 0.739 0.003 0.002 0.178-0.741zM25.301 27.068l-0.301-0.699-0.005 0.002 0.307 0.697zM25.469 26.933l-0.641-0.411-0.004 0.006-0.004 0.005 0.648 0.4zM26.287 26.736c0-0.136-0.021-0.284-0.078-0.431l-1.421 0.55c-0.015-0.035-0.023-0.076-0.024-0.118v-0h1.524zM26.219 26.332c-0.067-0.187-0.179-0.344-0.323-0.464l-0.002-0.001-0.979 1.167c-0.062-0.054-0.109-0.124-0.136-0.203l-0.001-0.003 1.441-0.495zM25.905 25.875c-0.108-0.091-0.231-0.17-0.363-0.231l-0.010-0.004-0.642 1.382c0.016 0.007 0.027 0.013 0.039 0.020l-0.003-0.002-0.003-0.002c-0.006-0.005-0.012-0.010-0.018-0.015l0 0 1-1.147zM25.531 25.64c-0.112-0.052-0.249-0.105-0.391-0.15l-0.025-0.007-0.457 1.454c0.114 0.037 0.189 0.066 0.231 0.085l0.642-1.382zM25.121 25.486c-0.122-0.040-0.236-0.084-0.341-0.131l-0.625 1.39c0.16 0.072 0.325 0.136 0.498 0.19l0.469-1.449zM24.782 25.357c-0.074-0.033-0.139-0.071-0.197-0.116l0.002 0.002-0.937 1.202c0.154 0.12 0.322 0.219 0.501 0.3l0.631-1.387zM24.597 25.25c-0.019-0.014-0.034-0.032-0.046-0.052l-0-0.001-1.336 0.734c0.109 0.198 0.254 0.366 0.427 0.505l0.955-1.186zM24.554 25.205c0.002 0.003 0.004 0.007 0.005 0.011l0 0.001 0.002 0.005s-0.002-0.008-0.002-0.026h-1.524c0 0.244 0.050 0.495 0.175 0.728l1.343-0.719zM24.559 25.195l0.001-0.014-0.001 0.003c-0.001 0.002-0.002 0.003-0.002 0.005l0-0-1.341-0.724c-0.124 0.23-0.181 0.478-0.181 0.73h1.524zM24.559 25.186c0.007-0.012 0.017-0.023 0.029-0.030l0-0-0.903-1.227c-0.195 0.143-0.353 0.324-0.467 0.532l-0.004 0.008 1.345 0.716zM24.594 25.151c0.040-0.028 0.086-0.050 0.136-0.064l0.003-0.001-0.432-1.461c-0.221 0.066-0.432 0.165-0.621 0.306l0.914 1.219zM24.731 25.087c0.069-0.020 0.156-0.034 0.27-0.034v-1.524c-0.238 0-0.472 0.029-0.699 0.095l0.429 1.463zM25 25.054c0.149 0 0.24 0.026 0.296 0.053l0.663-1.371c-0.271-0.13-0.59-0.206-0.926-0.206-0.011 0-0.023 0-0.034 0l0.002-0v1.524zM25.296 25.107c0.045 0.018 0.082 0.047 0.108 0.085l0 0.001 1.276-0.834c-0.18-0.269-0.424-0.482-0.711-0.619l-0.011-0.005-0.663 1.372zM25.408 25.197c0.011 0.017 0.023 0.040 0.023 0.094h1.524c0-0.331-0.088-0.652-0.277-0.937l-1.27 0.843zM26.193 24.53h-0.665v1.524h0.665v-1.524zM26.29 25.291c0-0.205-0.044-0.421-0.158-0.623l-1.328 0.747c-0.022-0.035-0.035-0.078-0.038-0.123l-0-0.001h1.524zM26.14 24.684c-0.115-0.212-0.287-0.38-0.495-0.488l-0.007-0.003-0.701 1.352c-0.061-0.035-0.11-0.085-0.143-0.145l-0.001-0.002 1.346-0.715zM25.645 24.197c-0.184-0.096-0.402-0.152-0.632-0.152-0.008 0-0.016 0-0.024 0l0.001-0v1.524c0.017 0 0.019 0.002 0.009 0-0.025-0.006-0.047-0.015-0.068-0.026l0.001 0.001 0.712-1.348zM24.99 24.045c-0.007-0-0.015-0-0.023-0-0.213 0-0.414 0.046-0.596 0.128l0.009-0.004 0.638 1.384c-0.014 0.007-0.031 0.013-0.049 0.017l-0.001 0c-0.005 0.002 0.002 0 0.021 0v-1.524zM24.391 24.164c-0.209 0.091-0.381 0.236-0.502 0.418l-0.003 0.004 1.278 0.83c-0.038 0.061-0.092 0.109-0.155 0.14l-0.002 0.001-0.616-1.394zM23.891 24.579c-0.116 0.173-0.186 0.385-0.186 0.614 0 0.002 0 0.003 0 0.005v-0h1.524c0 0 0 0.001 0 0.001 0 0.084-0.026 0.162-0.071 0.227l0.001-0.001-1.268-0.846zM23.705 25.198c0 0.185 0.046 0.372 0.149 0.541l1.307-0.783c0.049 0.081 0.069 0.168 0.069 0.242h-1.524zM23.864 25.755c0.094 0.149 0.215 0.26 0.331 0.341l0.876-1.247c0.005 0.004 0.043 0.030 0.080 0.091l-1.288 0.815zM24.194 26.096c0.109 0.076 0.227 0.137 0.343 0.187l0.597-1.402c-0.020-0.009-0.036-0.016-0.051-0.024l0.003 0.002-0.015-0.009-0.876 1.247zM24.537 26.283c0.109 0.046 0.228 0.088 0.352 0.127l0.451-1.455c-0.085-0.026-0.153-0.051-0.22-0.079l0.014 0.005-0.597 1.402zM24.894 26.411c0.145 0.044 0.259 0.089 0.347 0.133l0.681-1.364c-0.164-0.083-0.359-0.161-0.56-0.222l-0.026-0.007-0.441 1.459zM25.243 26.546c0.062 0.029 0.115 0.063 0.162 0.104l-0.001-0.001 1.030-1.123c-0.149-0.135-0.319-0.25-0.504-0.341l-0.013-0.006-0.675 1.366zM25.405 26.65c0.018 0.016 0.021 0.025 0.023 0.027l1.396-0.61c-0.095-0.212-0.226-0.392-0.387-0.539l-0.001-0.001-1.030 1.123zM25.428 26.677c-0.003-0.005 0.005 0.009 0.005 0.055h1.524c0-0.222-0.039-0.448-0.133-0.664l-1.397 0.61zM25.433 26.731c0 0 0 0.001 0 0.001 0 0.013-0.001 0.026-0.004 0.038l0-0.001c-0.001 0.006-0.002 0.006 0 0.005l1.366 0.674c0.102-0.205 0.162-0.447 0.162-0.702 0-0.005-0-0.010-0-0.015v0.001h-1.524zM25.429 26.774l-0.002 0.002c-0.002 0.002-0.005 0.004-0.007 0.006l-0 0 0.909 1.224c0.197-0.146 0.357-0.334 0.468-0.558l-1.367-0.674zM25.419 26.782c-0.035 0.024-0.076 0.043-0.119 0.054l-0.003 0.001 0.408 1.468c0.221-0.061 0.433-0.158 0.622-0.299l-0.909-1.224zM25.297 26.837c-0.078 0.021-0.168 0.033-0.261 0.033-0.007 0-0.013-0-0.020-0h0.001v1.524c0.235 0 0.466-0.027 0.689-0.088l-0.409-1.468zM25.016 26.869c-0.094 0-0.187-0.012-0.28-0.037l-0.392 1.473c0.22 0.059 0.444 0.088 0.672 0.088v-1.524zM24.744 26.834c-0.077-0.021-0.145-0.052-0.206-0.093l0.002 0.002-0.852 1.263c0.2 0.134 0.418 0.232 0.649 0.297l0.406-1.469zM24.544 26.745c-0.029-0.020-0.053-0.046-0.070-0.076l-0.001-0.001-1.326 0.751c0.133 0.235 0.314 0.432 0.536 0.584l0.859-1.259zM24.474 26.668c-0.003-0.006-0.006-0.013-0.008-0.021l-0-0.001c-0.005-0.022-0.008-0.047-0.008-0.072 0-0.002 0-0.005 0-0.007v0h-1.524c0 0.29 0.061 0.583 0.213 0.851l1.326-0.751zM23.697 27.33h0.672v-1.524h-0.672v1.524zM23.607 26.568c0 0.175 0.027 0.373 0.114 0.568l1.391-0.622c0.008 0.016 0.014 0.036 0.018 0.055l0 0.002c0.002 0.009 0.001 0.009 0.001-0.003h-1.524zM23.72 27.136c0.078 0.177 0.2 0.338 0.365 0.465l0.924-1.211c0.043 0.033 0.078 0.075 0.101 0.123l0.001 0.002-1.391 0.622zM24.093 27.606c0.149 0.111 0.312 0.182 0.478 0.222l0.363-1.48c0.008 0.002 0.035 0.011 0.069 0.035l-0.91 1.223zM24.574 27.829c0.147 0.035 0.296 0.050 0.442 0.050v-1.524c-0.003 0-0.006 0-0.010 0-0.027 0-0.053-0.003-0.078-0.008l0.002 0-0.357 1.481zM25.016 27.88c0.18 0 0.389-0.024 0.592-0.114l-0.613-1.394c0.029-0.013 0.048-0.016 0.050-0.017s-0.006 0.002-0.029 0.002v1.524zM25.603 27.768c0.189-0.081 0.381-0.219 0.515-0.436l-1.298-0.799c0.043-0.071 0.104-0.127 0.177-0.163l0.003-0.001 0.603 1.399zM26.11 27.343c0.12-0.187 0.177-0.398 0.177-0.607h-1.524c0-0.064 0.018-0.143 0.064-0.215l1.283 0.823zM28.103 24.336h0.762v-0.762h-0.762v0.762zM28.103 27.586v0.762h0.762v-0.762h-0.762zM27.436 27.586h-0.762v0.762h0.762v-0.762zM27.436 24.336v-0.762h-0.762v0.762h0.762zM29.103 24.336h0.762v-0.762h-0.762v0.762zM29.103 24.861v0.762h0.762v-0.762h-0.762zM26.452 24.861h-0.762v0.762h0.762v-0.762zM26.452 24.336v-0.762h-0.762v0.762h0.762zM27.341 24.336v3.25h1.524v-3.251h-1.524zM28.103 26.824h-0.667v1.524h0.667v-1.524zM28.198 27.586v-3.251h-1.524v3.25h1.524zM27.436 25.098h0.667v-1.524h-0.667v1.524zM28.341 24.336v0.525h1.524v-0.525h-1.524zM29.103 24.099h-2.651v1.524h2.651v-1.524zM27.214 24.861v-0.525h-1.524v0.525h1.524zM26.452 25.098h2.651v-1.524h-2.651v1.524zM31.666 27.064h0.762v-0.762h-0.762v0.762zM31.666 27.586v0.762h0.762v-0.762h-0.762zM29.936 27.586h-0.762v0.762h0.762v-0.762zM29.936 27.064v-0.762h-0.762v0.762h0.762zM30.155 24.336h0.762v-0.762h-0.762v0.762zM30.155 27.586v0.762h0.762v-0.762h-0.762zM29.484 27.586h-0.762v0.762h0.762v-0.762zM29.484 24.336v-0.762h-0.762v0.762h0.762zM31.44 25.66h0.762v-0.762h-0.762v0.762zM31.44 26.169v0.762h0.762v-0.762h-0.762zM29.936 26.169h-0.762v0.762h0.762v-0.762zM29.936 25.66v-0.762h-0.762v0.762h0.762zM31.663 24.336h0.762v-0.762h-0.762v0.762zM31.663 24.861v0.762h0.762v-0.762h-0.762zM29.936 24.861h-0.762v0.762h0.762v-0.762zM29.936 24.336v-0.762h-0.762v0.762h0.762zM30.904 27.064v0.523h1.524v-0.523h-1.524zM31.666 26.824h-1.73v1.524h1.73v-1.524zM30.698 27.586v-0.523h-1.524v0.523h1.524zM29.936 27.826h1.73v-1.524h-1.73v1.524zM29.393 24.336v3.25h1.524v-3.251h-1.524zM30.155 26.824h-0.67v1.524h0.67v-1.524zM30.246 27.586v-3.251h-1.524v3.25h1.524zM29.484 25.098h0.67v-1.524h-0.67v1.524zM30.678 25.66v0.509h1.524v-0.509h-1.524zM31.44 25.407h-1.504v1.524h1.504v-1.524zM30.698 26.169v-0.509h-1.524v0.509h1.524zM29.936 26.422h1.504v-1.524h-1.504v1.524zM30.901 24.336v0.525h1.524v-0.525h-1.524zM31.663 24.099h-1.727v1.524h1.727v-1.524zM30.698 24.861v-0.525h-1.524v0.525h1.524zM29.936 25.098h1.727v-1.524h-1.727v1.524zM32.056 24.336v-0.762h-0.762v0.762h0.762zM33.909 24.448l-0.293 0.703 0.002 0.001 0.291-0.704zM34.38 25.765l-0.688-0.328-0.002 0.004 0.69 0.324zM34.132 26.075l0.467 0.603 0.002-0.001-0.468-0.602zM33.759 26.271l-0.248-0.72-0.056 0.019-0.052 0.027 0.355 0.674zM33.547 26.383v0.762h0.188l0.167-0.088-0.355-0.674zM32.494 26.383l-0.762 0.006 0.007 0.756h0.755v-0.762zM32.489 25.861v-0.762h-0.768l0.006 0.769 0.762-0.007zM33.739 25.624l-0.67-0.362-0.003 0.005-0.002 0.005 0.676 0.352zM32.725 24.861v-0.762h-0.762v0.762h0.762zM32.725 27.586v0.762h0.762v-0.762h-0.762zM32.056 27.586h-0.762v0.762h0.762v-0.762zM33.874 27.586l-0.678 0.347 0.212 0.415h0.466v-0.762zM33.132 26.138l-0.005-0.762-1.237 0.008 0.563 1.101 0.678-0.347zM33.84 26.133l0.674-0.356-0.216-0.409-0.463 0.003 0.005 0.762zM34.59 27.555h0.762v-0.189l-0.088-0.167-0.674 0.356zM34.59 27.586v0.762h0.762v-0.762h-0.762zM32.056 25.098h1.211v-1.524h-1.211v1.524zM33.268 25.098c0.175 0 0.285 0.027 0.348 0.053l0.587-1.406c-0.264-0.108-0.571-0.171-0.893-0.171-0.014 0-0.029 0-0.043 0l0.002-0v1.524zM33.618 25.152c0.056 0.023 0.068 0.042 0.071 0.047l1.27-0.842c-0.185-0.274-0.444-0.486-0.748-0.609l-0.011-0.004-0.582 1.408zM33.689 25.199s0.004 0.006 0.008 0.021c0.007 0.027 0.011 0.057 0.011 0.089 0 0.002-0 0.004-0 0.007v-0h1.524c0-0.33-0.076-0.663-0.272-0.958l-1.27 0.842zM33.707 25.316c0 0.002 0 0.005 0 0.008 0 0.030-0.003 0.060-0.008 0.089l0-0.003c-0.004 0.019-0.008 0.027-0.008 0.027l1.376 0.655c0.119-0.25 0.163-0.517 0.163-0.776h-1.524zM33.691 25.441c-0.006 0.013-0.015 0.024-0.026 0.033l-0 0 0.935 1.203c0.203-0.158 0.361-0.357 0.47-0.587l-1.379-0.648zM33.666 25.473c-0.044 0.033-0.095 0.060-0.15 0.077l-0.004 0.001 0.495 1.441c0.212-0.073 0.412-0.175 0.592-0.315l-0.933-1.205zM33.404 25.597l-0.212 0.112 0.71 1.349 0.212-0.112-0.709-1.349zM33.547 25.621h-1.054v1.524h1.054v-1.524zM33.256 26.376l-0.005-0.522-1.524 0.013 0.005 0.522 1.524-0.013zM32.489 26.622h0.784v-1.524h-0.784v1.524zM33.273 26.622c0.203 0 0.434-0.035 0.654-0.153l-0.723-1.342c0.065-0.035 0.101-0.029 0.069-0.029v1.524zM33.927 26.469c0.205-0.11 0.376-0.277 0.488-0.494l-1.352-0.703c0.033-0.061 0.080-0.11 0.138-0.144l0.002-0.001 0.723 1.341zM34.41 25.986c0.109-0.203 0.152-0.417 0.152-0.621h-1.524c0.003-0.038 0.014-0.073 0.032-0.104l-0.001 0.001 1.341 0.724zM34.562 25.365c0-0.198-0.037-0.411-0.141-0.616l-1.358 0.693c-0.027-0.053-0.025-0.087-0.025-0.076h1.524zM34.421 24.749c-0.114-0.22-0.289-0.394-0.503-0.504l-0.007-0.003-0.692 1.358c-0.067-0.036-0.121-0.091-0.156-0.156l-0.001-0.002 1.358-0.693zM33.911 24.242c-0.181-0.090-0.394-0.143-0.619-0.143-0.008 0-0.017 0-0.025 0l0.001-0v1.524c0.018 0 0.020 0.002 0.011 0-0.023-0.005-0.043-0.013-0.062-0.023l0.001 0.001 0.692-1.358zM33.269 24.099h-0.542v1.524h0.542v-1.524zM31.964 24.861v2.725h1.524v-2.725h-1.524zM32.726 26.824h-0.67v1.524h0.67v-1.524zM32.818 27.586v-3.251h-1.524v3.25h1.524zM34.552 27.239l-0.741-1.448-1.356 0.693 0.741 1.448 1.357-0.693zM33.137 26.9l0.708-0.005-0.010-1.524-0.707 0.005 0.009 1.524zM33.166 26.488l0.75 1.422 1.348-0.711-0.75-1.422-1.348 0.711zM33.829 27.555v0.030h1.524v-0.030h-1.524zM34.59 26.824h-0.717v1.524h0.716v-1.524zM36.561 26.427h-0.762v0.762h0.762v-0.762zM36.561 25.906v-0.762h-0.762v0.762h0.762zM37.701 25.843l0.35 0.677 0.005-0.003 0.005-0.002-0.36-0.671zM36.793 24.86v-0.762h-0.762v0.762h0.762zM36.793 27.586v0.762h0.762v-0.762h-0.762zM36.123 27.586h-0.762v0.762h0.762v-0.762zM36.123 24.336v-0.762h-0.762v0.762h0.762zM38.043 24.475l-0.345 0.68 0.007 0.003 0.338-0.683zM38.043 26.303l-0.315-0.693h-0.002l0.318 0.693zM37.389 25.666h-0.828v1.524h0.828v-1.524zM37.323 26.427v-0.522h-1.524v0.522h1.524zM36.561 26.667h0.828v-1.524h-0.828v1.524zM37.389 26.667c0.203 0 0.439-0.032 0.663-0.148l-0.701-1.353c0.018-0.010 0.039-0.018 0.061-0.023l0.002-0c0.006-0.002-0.001 0-0.024 0v1.524zM38.062 26.514c0.209-0.112 0.387-0.284 0.5-0.514l-1.368-0.67c0.033-0.066 0.084-0.12 0.145-0.157l0.002-0.001 0.721 1.342zM38.562 26c0.094-0.194 0.134-0.396 0.134-0.593h-1.524c0-0.002 0-0.011 0.003-0.026 0.005-0.020 0.011-0.038 0.020-0.054l-0.001 0.001 1.368 0.67zM38.696 25.407c0-0.197-0.038-0.393-0.122-0.581l-1.392 0.622c-0.005-0.012-0.009-0.026-0.010-0.041l-0-0h1.524zM38.574 24.827c-0.102-0.224-0.262-0.406-0.461-0.532l-0.005-0.003-0.812 1.29c-0.049-0.033-0.088-0.078-0.113-0.131l-0.001-0.002 1.392-0.622zM38.107 24.292c-0.197-0.121-0.436-0.193-0.691-0.193-0.010 0-0.019 0-0.028 0l0.001-0v1.524c0.033 0-0.017 0.007-0.094-0.041l0.812-1.29zM37.389 24.099h-0.596v1.524h0.596v-1.524zM36.031 24.861v2.725h1.524v-2.725h-1.524zM36.793 26.824h-0.67v1.524h0.67v-1.524zM36.885 27.586v-3.251h-1.524v3.25h1.524zM36.123 25.098h1.266v-1.524h-1.266v1.524zM37.389 25.098c0.164 0 0.258 0.030 0.309 0.056l0.69-1.358c-0.28-0.14-0.61-0.221-0.959-0.221-0.014 0-0.028 0-0.042 0l0.002-0v1.524zM37.704 25.157c0.044 0.018 0.080 0.049 0.105 0.087l0.001 0.001 1.306-0.786c-0.177-0.288-0.426-0.516-0.723-0.662l-0.010-0.005-0.677 1.365zM37.81 25.245c0.018 0.030 0.036 0.075 0.036 0.158h1.524c0-0.331-0.078-0.653-0.254-0.945l-1.306 0.786zM37.845 25.403c0 0.089-0.018 0.124-0.027 0.137l1.289 0.814c0.185-0.293 0.262-0.62 0.262-0.951h-1.524zM37.818 25.541c-0.008 0.015-0.027 0.040-0.091 0.069l0.632 1.387c0.302-0.137 0.564-0.349 0.748-0.642l-1.289-0.813zM37.725 25.611c-0.059 0.027-0.162 0.055-0.336 0.055v1.524c0.335 0 0.667-0.054 0.972-0.194l-0.636-1.384zM41.25 27.064h0.762v-0.762h-0.762v0.762zM41.25 27.586v0.762h0.762v-0.762h-0.762zM39.521 27.586h-0.762v0.762h0.762v-0.762zM39.521 27.064v-0.762h-0.762v0.762h0.762zM39.739 24.336h0.762v-0.762h-0.762v0.762zM39.739 27.586v0.762h0.762v-0.762h-0.762zM39.070 27.586h-0.762v0.762h0.762v-0.762zM39.070 24.336v-0.762h-0.762v0.762h0.762zM41.025 25.66h0.762v-0.762h-0.762v0.762zM41.025 26.169v0.762h0.762v-0.762h-0.762zM39.521 26.169h-0.762v0.762h0.762v-0.762zM39.521 25.66v-0.762h-0.762v0.762h0.762zM41.248 24.336h0.762v-0.762h-0.762v0.762zM41.248 24.861v0.762h0.762v-0.762h-0.762zM39.521 24.861h-0.762v0.762h0.762v-0.762zM39.521 24.336v-0.762h-0.762v0.762h0.762zM40.488 27.064v0.523h1.524v-0.523h-1.524zM41.25 26.824h-1.73v1.524h1.73v-1.524zM40.283 27.586v-0.523h-1.524v0.523h1.524zM39.521 27.826h1.73v-1.524h-1.73v1.524zM38.978 24.336v3.25h1.524v-3.251h-1.524zM39.739 26.824h-0.67v1.524h0.67v-1.524zM39.832 27.586v-3.251h-1.524v3.25h1.524zM39.070 25.098h0.67v-1.524h-0.67v1.524zM40.263 25.66v0.509h1.524v-0.509h-1.524zM41.025 25.407h-1.504v1.524h1.504v-1.524zM40.283 26.169v-0.509h-1.524v0.509h1.524zM39.521 26.422h1.504v-1.524h-1.504v1.524zM40.486 24.336v0.525h1.524v-0.525h-1.524zM41.248 24.099h-1.727v1.524h1.727v-1.524zM40.283 24.861v-0.525h-1.524v0.525h1.524zM39.521 25.098h1.727v-1.524h-1.727v1.524zM43.139 24.336h0.762v-0.762h-0.762v0.762zM43.139 27.586v0.762h0.762v-0.762h-0.762zM42.472 27.586h-0.762v0.762h0.762v-0.762zM42.472 24.336v-0.762h-0.762v0.762h0.762zM44.139 24.336h0.762v-0.762h-0.762v0.762zM44.139 24.861v0.762h0.762v-0.762h-0.762zM41.487 24.861h-0.762v0.762h0.762v-0.762zM41.487 24.336v-0.762h-0.762v0.762h0.762zM42.377 24.336v3.25h1.524v-3.251h-1.524zM43.139 26.824h-0.667v1.524h0.667v-1.524zM43.234 27.586v-3.251h-1.524v3.25h1.524zM42.472 25.098h0.667v-1.524h-0.667v1.524zM43.377 24.336v0.525h1.524v-0.525h-1.524zM44.139 24.099h-2.651v1.524h2.651v-1.524zM42.249 24.861v-0.525h-1.524v0.525h1.524zM41.487 25.098h2.651v-1.524h-2.651v1.524zM46.702 27.064h0.762v-0.762h-0.762v0.762zM46.702 27.586v0.762h0.762v-0.762h-0.762zM44.972 27.586h-0.762v0.762h0.762v-0.762zM44.972 27.064v-0.762h-0.762v0.762h0.762zM45.19 24.336h0.762v-0.762h-0.762v0.762zM45.19 27.586v0.762h0.762v-0.762h-0.762zM44.52 27.586h-0.762v0.762h0.762v-0.762zM44.52 24.336v-0.762h-0.762v0.762h0.762zM46.476 25.661h0.762v-0.762h-0.762v0.762zM46.476 26.17v0.762h0.762v-0.762h-0.762zM44.971 26.17h-0.762v0.762h0.762v-0.762zM44.971 25.661v-0.762h-0.762v0.762h0.762zM46.699 24.337h0.762v-0.762h-0.762v0.762zM46.699 24.862v0.762h0.762v-0.762h-0.762zM44.971 24.862h-0.762v0.762h0.762v-0.762zM44.971 24.337v-0.762h-0.762v0.762h0.762zM45.939 27.064v0.523h1.524v-0.523h-1.524zM46.701 26.825h-1.73v1.524h1.73v-1.524zM45.733 27.587v-0.523h-1.524v0.523h1.524zM44.971 27.826h1.73v-1.524h-1.73v1.524zM44.428 24.337v3.25h1.524v-3.252h-1.524zM45.19 26.825h-0.67v1.524h0.67v-1.524zM45.282 27.587v-3.252h-1.524v3.25h1.524zM44.52 25.099h0.67v-1.524h-0.67v1.524zM45.714 25.661v0.509h1.524v-0.509h-1.524zM46.476 25.408h-1.505v1.524h1.505v-1.524zM45.733 26.17v-0.509h-1.524v0.509h1.524zM44.971 26.423h1.505v-1.524h-1.505v1.524zM45.938 24.337v0.525h1.524v-0.525h-1.524zM46.699 24.1h-1.728v1.524h1.728v-1.524zM45.733 24.862v-0.525h-1.524v0.525h1.524zM44.971 25.099h1.728v-1.524h-1.728v1.524zM47.092 24.337v-0.762h-0.762v0.762h0.762zM48.945 24.449l-0.293 0.703 0.002 0.001 0.291-0.704zM49.416 25.765l-0.688-0.328-0.002 0.004 0.69 0.324zM49.168 26.075l0.466 0.603 0.002-0.001-0.468-0.602zM48.795 26.272l-0.247-0.72-0.056 0.019-0.052 0.027 0.355 0.674zM48.583 26.384v0.762h0.188l0.168-0.088-0.356-0.674zM47.529 26.384l-0.762 0.006 0.007 0.756h0.756v-0.762zM47.525 25.861v-0.762h-0.769l0.007 0.769 0.762-0.007zM48.775 25.625l-0.67-0.362-0.002 0.005-0.003 0.005 0.676 0.352zM47.762 24.862v-0.762h-0.762v0.762h0.762zM47.762 27.587v0.762h0.762v-0.762h-0.762zM47.092 27.587h-0.762v0.762h0.762v-0.762zM48.909 27.587l-0.678 0.347 0.212 0.415h0.466v-0.762zM48.168 26.139l-0.005-0.762-1.237 0.008 0.564 1.101 0.678-0.347zM48.876 26.134l0.674-0.356-0.216-0.409-0.462 0.003 0.005 0.762zM49.625 27.556h0.762v-0.189l-0.088-0.167-0.674 0.356zM49.625 27.586v0.762h0.762v-0.762h-0.762zM47.092 25.099h1.213v-1.524h-1.211v1.524zM48.304 25.099c0.175 0 0.284 0.027 0.347 0.053l0.587-1.406c-0.264-0.108-0.571-0.171-0.893-0.171-0.014 0-0.029 0-0.043 0l0.002-0v1.524zM48.654 25.153c0.056 0.023 0.068 0.042 0.072 0.047l1.269-0.842c-0.186-0.274-0.444-0.485-0.748-0.609l-0.011-0.004-0.582 1.408zM48.725 25.2s0.004 0.006 0.008 0.021c0.006 0.026 0.010 0.055 0.010 0.086 0 0.003-0 0.006-0 0.010v-0h1.524c0-0.33-0.076-0.663-0.272-0.958l-1.269 0.842zM48.743 25.317c0 0 0 0.001 0 0.001 0 0.043-0.006 0.085-0.016 0.124l0.001-0.003 1.376 0.655c0.119-0.251 0.163-0.518 0.163-0.777h-1.524zM48.726 25.442c-0.006 0.013-0.015 0.024-0.026 0.033l-0 0 0.936 1.203c0.202-0.158 0.36-0.357 0.469-0.587l-1.379-0.648zM48.701 25.474c-0.044 0.033-0.095 0.059-0.149 0.077l-0.004 0.001 0.495 1.441c0.212-0.073 0.411-0.175 0.591-0.315l-0.933-1.205zM48.44 25.598l-0.212 0.112 0.709 1.349 0.212-0.112-0.709-1.349zM48.583 25.622h-1.054v1.524h1.054v-1.524zM48.291 26.377l-0.004-0.522-1.524 0.013 0.004 0.522 1.524-0.013zM47.525 26.623h0.783v-1.524h-0.783v1.524zM48.309 26.623c0.203 0 0.434-0.035 0.654-0.153l-0.722-1.342c0.065-0.035 0.101-0.029 0.069-0.029v1.524zM48.962 26.47c0.206-0.11 0.376-0.277 0.488-0.494l-1.352-0.703c0.033-0.061 0.081-0.11 0.139-0.144l0.002-0.001 0.722 1.341zM49.445 25.987c0.11-0.203 0.152-0.417 0.152-0.621h-1.524c0.002-0.038 0.013-0.073 0.031-0.104l-0.001 0.001 1.341 0.724zM49.598 25.366c0-0.198-0.038-0.411-0.142-0.616l-1.358 0.693c-0.027-0.053-0.025-0.087-0.025-0.076h1.524zM49.456 24.75c-0.114-0.22-0.289-0.394-0.502-0.504l-0.007-0.003-0.692 1.358c-0.068-0.036-0.121-0.091-0.156-0.156l-0.001-0.002 1.358-0.693zM48.947 24.243c-0.181-0.090-0.394-0.143-0.619-0.143-0.008 0-0.017 0-0.025 0l0.001-0v1.524c0.018 0 0.021 0.002 0.012 0-0.023-0.005-0.043-0.013-0.062-0.023l0.001 0.001 0.692-1.358zM48.304 24.1h-0.542v1.524h0.542v-1.524zM47 24.862v2.725h1.524v-2.726h-1.524zM47.762 26.825h-0.67v1.524h0.67v-1.524zM47.854 27.587v-3.252h-1.524v3.25h1.524zM49.587 27.24l-0.741-1.448-1.356 0.693 0.741 1.448 1.356-0.693zM48.173 26.901l0.707-0.005-0.009-1.524-0.708 0.005 0.010 1.524zM48.202 26.489l0.75 1.422 1.348-0.711-0.75-1.422-1.349 0.711zM48.863 27.556v0.030h1.524v-0.030h-1.524zM49.625 26.824h-0.716v1.524h0.716v-1.524zM51.686 26.581l-0.721 0.248 0.005 0.014 0.005 0.014 0.711-0.275zM51.592 26.451l-0.501 0.574 0.011 0.009 0.489-0.584zM51.074 26.212l-0.235 0.725 0.006 0.002 0.229-0.727zM50.655 26.052l-0.316 0.693 0.003 0.001 0.312-0.695zM50.306 25.844l-0.478 0.593 0.005 0.004 0.005 0.005 0.469-0.602zM50.070 25.565l-0.672 0.36 0.004 0.008 0.667-0.367zM50.074 24.828l0.67 0.362 0.002-0.004-0.673-0.358zM50.325 24.542l0.451 0.613 0.005-0.004-0.457-0.61zM50.704 24.357l-0.215-0.731h-0.002l0.216 0.731zM52.23 24.776l-0.638 0.417 0.003 0.005 0.635-0.421zM52.38 25.292v0.762h0.762v-0.762h-0.762zM51.715 25.292h-0.762v0.762h0.762v-0.762zM51.654 25.042l-0.673 0.357 0.005 0.008 0.005 0.008 0.664-0.373zM51.476 24.871l-0.356 0.674 0.005 0.002 0.35-0.677zM50.887 24.862l0.308 0.696 0.006-0.002 0.005-0.002-0.32-0.692zM50.712 25.002l0.634 0.423 0.005-0.008-0.639-0.415zM50.695 25.348l-0.654 0.392 0.005 0.008 0.005 0.008 0.644-0.408zM51.302 25.683l-0.226 0.728 0.005 0.002 0.221-0.729zM51.768 25.864l-0.341 0.682 0.003 0.002 0.338-0.683zM50.728 27.57l-0.203 0.734 0.008 0.002 0.196-0.736zM50.302 27.375l-0.43 0.629 0.004 0.002 0.427-0.632zM49.884 26.569v-0.762h-0.762v0.762h0.762zM50.556 26.569h0.762v-0.762h-0.762v0.762zM50.734 26.996l-0.462 0.606 0.008 0.005 0.455-0.611zM50.94 27.090l-0.181 0.739 0.003 0.002 0.178-0.741zM51.489 27.069l-0.301-0.699-0.005 0.002 0.307 0.697zM51.656 26.933l-0.641-0.411-0.004 0.006-0.004 0.005 0.649 0.4zM52.475 26.737c0-0.136-0.021-0.284-0.078-0.431l-1.421 0.55c-0.015-0.035-0.023-0.076-0.024-0.118v-0h1.524zM52.406 26.333c-0.067-0.187-0.179-0.344-0.323-0.464l-0.002-0.001-0.979 1.167c-0.062-0.054-0.109-0.124-0.136-0.203l-0.001-0.003 1.441-0.495zM52.092 25.876c-0.108-0.091-0.231-0.17-0.363-0.231l-0.010-0.004-0.642 1.382c0.015 0.007 0.027 0.013 0.038 0.020l-0.003-0.001-0.003-0.002c-0.006-0.005-0.012-0.010-0.018-0.015l0 0 1-1.148zM51.719 25.641c-0.112-0.052-0.249-0.105-0.391-0.15l-0.025-0.007-0.457 1.454c0.114 0.037 0.189 0.066 0.231 0.085l0.642-1.382zM51.308 25.487c-0.122-0.040-0.236-0.084-0.341-0.131l-0.625 1.39c0.16 0.072 0.325 0.136 0.498 0.19l0.469-1.449zM50.97 25.358c-0.074-0.033-0.139-0.071-0.197-0.116l0.002 0.002-0.937 1.202c0.154 0.12 0.322 0.219 0.501 0.3l0.631-1.387zM50.785 25.251c-0.019-0.014-0.035-0.032-0.047-0.052l-0-0.001-1.336 0.734c0.109 0.198 0.254 0.366 0.427 0.505l0.956-1.186zM50.741 25.205c0.002 0.003 0.004 0.007 0.005 0.011l0 0.001 0.002 0.005s-0.002-0.008-0.002-0.026h-1.524c0 0.244 0.050 0.495 0.175 0.728l1.343-0.719zM50.747 25.196l0.001-0.014-0.001 0.003c-0.001 0.002-0.002 0.003-0.002 0.005l0-0-1.341-0.724c-0.114 0.208-0.181 0.456-0.181 0.72 0 0.004 0 0.007 0 0.011v-0.001h1.524zM50.747 25.186c0.007-0.012 0.017-0.023 0.029-0.030l0-0-0.903-1.227c-0.195 0.143-0.353 0.324-0.467 0.532l-0.004 0.008 1.345 0.716zM50.781 25.152c0.040-0.028 0.086-0.050 0.136-0.064l0.003-0.001-0.432-1.461c-0.221 0.066-0.432 0.165-0.62 0.306l0.914 1.219zM50.918 25.088c0.069-0.020 0.157-0.034 0.27-0.034v-1.524c-0.238 0-0.472 0.029-0.699 0.095l0.429 1.463zM51.188 25.054c0.149 0 0.24 0.026 0.296 0.053l0.663-1.371c-0.271-0.13-0.59-0.206-0.926-0.206-0.011 0-0.023 0-0.034 0l0.002-0v1.524zM51.483 25.108c0.045 0.018 0.082 0.047 0.108 0.085l0.001 0.001 1.275-0.834c-0.179-0.269-0.423-0.482-0.71-0.619l-0.011-0.005-0.663 1.372zM51.595 25.198c0.011 0.017 0.023 0.040 0.023 0.094h1.524c0-0.331-0.088-0.652-0.277-0.937l-1.27 0.843zM52.38 24.53h-0.665v1.524h0.665v-1.524zM52.477 25.292c0-0.205-0.044-0.421-0.158-0.623l-1.328 0.747c-0.022-0.035-0.035-0.078-0.038-0.123l-0-0.001h1.524zM52.328 24.685c-0.115-0.212-0.287-0.38-0.495-0.488l-0.007-0.003-0.701 1.352c-0.061-0.035-0.11-0.085-0.143-0.145l-0.001-0.002 1.346-0.715zM51.832 24.197c-0.184-0.096-0.402-0.152-0.632-0.152-0.008 0-0.016 0-0.024 0l0.001-0v1.524c0.017 0 0.019 0.002 0.009 0-0.025-0.006-0.047-0.015-0.068-0.026l0.001 0.001 0.712-1.348zM51.177 24.046c-0.007-0-0.015-0-0.023-0-0.213 0-0.414 0.046-0.596 0.128l0.009-0.004 0.638 1.384c-0.014 0.007-0.031 0.013-0.049 0.017l-0.001 0c-0.005 0.002 0.002 0 0.021 0v-1.524zM50.578 24.165c-0.209 0.091-0.381 0.236-0.502 0.418l-0.003 0.004 1.278 0.83c-0.038 0.061-0.092 0.109-0.155 0.14l-0.002 0.001-0.616-1.394zM50.078 24.58c-0.116 0.173-0.186 0.385-0.186 0.614 0 0.002 0 0.003 0 0.005v-0h1.524c0 0 0 0.001 0 0.001 0 0.084-0.026 0.162-0.071 0.227l0.001-0.001-1.268-0.846zM49.893 25.198c0 0.185 0.047 0.372 0.149 0.541l1.307-0.783c0.049 0.081 0.069 0.168 0.069 0.242h-1.524zM50.051 25.755c0.094 0.149 0.215 0.26 0.331 0.341l0.876-1.247c0.005 0.004 0.043 0.030 0.081 0.091l-1.288 0.815zM50.382 26.097c0.109 0.076 0.227 0.137 0.343 0.187l0.597-1.402c-0.020-0.008-0.036-0.016-0.051-0.024l0.003 0.002-0.015-0.009-0.876 1.247zM50.725 26.283c0.109 0.046 0.228 0.088 0.352 0.127l0.451-1.455c-0.085-0.026-0.153-0.051-0.22-0.079l0.014 0.005-0.597 1.402zM51.081 26.412c0.145 0.044 0.259 0.089 0.347 0.133l0.681-1.364c-0.164-0.083-0.359-0.161-0.56-0.222l-0.026-0.007-0.441 1.459zM51.431 26.547c0.062 0.029 0.115 0.063 0.162 0.104l-0.001-0.001 1.031-1.123c-0.149-0.135-0.32-0.25-0.504-0.341l-0.013-0.006-0.675 1.366zM51.592 26.651c0.018 0.016 0.021 0.025 0.023 0.027l1.396-0.61c-0.095-0.212-0.226-0.392-0.387-0.539l-0.001-0.001-1.030 1.123zM51.615 26.677c-0.002-0.005 0.005 0.009 0.005 0.055h1.524c0-0.222-0.038-0.448-0.133-0.664l-1.397 0.61zM51.621 26.732c0 0 0 0.001 0 0.001 0 0.013-0.001 0.026-0.004 0.038l0-0.001c-0.001 0.006-0.002 0.006 0 0.005l1.366 0.674c0.102-0.205 0.162-0.447 0.162-0.702 0-0.005-0-0.010-0-0.015v0.001h-1.524zM51.616 26.775l-0.002 0.002c-0.002 0.002-0.005 0.004-0.007 0.006l-0 0 0.909 1.224c0.197-0.146 0.357-0.334 0.468-0.558l-1.367-0.674zM51.606 26.783c-0.035 0.024-0.076 0.043-0.119 0.054l-0.003 0.001 0.408 1.468c0.221-0.061 0.433-0.158 0.622-0.299l-0.909-1.224zM51.484 26.837c-0.078 0.021-0.168 0.033-0.261 0.033-0.007 0-0.013-0-0.020-0h0.001v1.524c0.235 0 0.466-0.027 0.689-0.088l-0.409-1.468zM51.204 26.87c-0.094 0-0.187-0.012-0.28-0.037l-0.392 1.473c0.22 0.059 0.444 0.088 0.672 0.088v-1.524zM50.931 26.835c-0.077-0.021-0.145-0.052-0.206-0.093l0.002 0.002-0.852 1.263c0.2 0.134 0.418 0.232 0.649 0.297l0.406-1.469zM50.731 26.746c-0.029-0.020-0.053-0.046-0.070-0.076l-0.001-0.001-1.326 0.751c0.133 0.235 0.314 0.432 0.536 0.584l0.859-1.259zM50.661 26.669c-0.003-0.006-0.006-0.013-0.008-0.021l-0-0.001c-0.005-0.022-0.008-0.047-0.008-0.072 0-0.002 0-0.005 0-0.007v0h-1.524c0 0.29 0.061 0.583 0.213 0.851l1.326-0.751zM49.884 27.331h0.672v-1.524h-0.672v1.524zM49.794 26.569c0 0.175 0.027 0.373 0.114 0.568l1.391-0.622c0.008 0.016 0.014 0.036 0.018 0.055l0 0.002c0.002 0.009 0.001 0.009 0.001-0.003h-1.524zM49.908 27.137c0.078 0.177 0.2 0.338 0.365 0.465l0.924-1.211c0.043 0.033 0.078 0.075 0.101 0.123l0.001 0.002-1.391 0.622zM50.28 27.607c0.149 0.111 0.312 0.182 0.478 0.222l0.363-1.48c0.008 0.002 0.035 0.011 0.069 0.035l-0.91 1.223zM50.762 27.83c0.147 0.035 0.296 0.050 0.442 0.050v-1.524c-0.003 0-0.006 0-0.010 0-0.027 0-0.053-0.003-0.078-0.008l0.002 0-0.357 1.481zM51.204 27.88c0.18 0 0.389-0.024 0.593-0.114l-0.614-1.394c0.029-0.013 0.048-0.016 0.050-0.017s-0.006 0.002-0.029 0.002v1.524zM51.79 27.768c0.189-0.081 0.381-0.219 0.515-0.436l-1.298-0.799c0.043-0.071 0.104-0.127 0.177-0.163l0.002-0.001 0.603 1.399zM52.298 27.344c0.12-0.187 0.177-0.398 0.177-0.607h-1.524c0-0.064 0.018-0.143 0.065-0.215l1.282 0.823z"></path>
</svg>
<svg id="icon-logo3" viewBox="0 0 34 32">
<path d="M5.643 31.315c0.012 0 0.024 0.003 0.035 0.008s0.021 0.011 0.030 0.018l-0-0 0.166 0.158c-0.13 0.129-0.289 0.232-0.468 0.302-0.184 0.069-0.397 0.109-0.62 0.109-0.015 0-0.030-0-0.045-0.001l0.002 0c-0.213 0.004-0.425-0.030-0.622-0.101-0.182-0.066-0.338-0.163-0.47-0.286l0.001 0.001c-0.128-0.121-0.231-0.268-0.3-0.432l-0.003-0.008c-0.068-0.163-0.107-0.352-0.107-0.55 0-0.006 0-0.011 0-0.017v0.001c-0-0.009-0-0.019-0-0.029 0-0.388 0.168-0.737 0.436-0.977l0.001-0.001c0.142-0.124 0.312-0.222 0.498-0.287 0.205-0.069 0.423-0.103 0.642-0.101 0.012-0 0.026-0 0.040-0 0.199 0 0.39 0.034 0.568 0.096l-0.012-0.004c0.165 0.062 0.316 0.149 0.447 0.255l-0.139 0.169c-0.010 0.012-0.021 0.022-0.034 0.030l-0.001 0c-0.014 0.008-0.031 0.013-0.048 0.013-0.003 0-0.006-0-0.008-0l0 0c-0.023-0.001-0.043-0.007-0.062-0.018l0.001 0-0.074-0.046-0.104-0.058c-0.095-0.046-0.205-0.081-0.321-0.1l-0.007-0.001c-0.069-0.012-0.149-0.018-0.23-0.018-0.006 0-0.013 0-0.019 0h0.001c-0.005-0-0.010-0-0.015-0-0.16 0-0.313 0.028-0.455 0.079l0.009-0.003c-0.14 0.049-0.26 0.122-0.363 0.214l0.001-0.001c-0.103 0.098-0.183 0.213-0.235 0.339-0.054 0.128-0.085 0.276-0.085 0.432 0 0.006 0 0.011 0 0.017v-0.001c-0 0.006-0 0.012-0 0.019 0 0.157 0.031 0.307 0.088 0.444l-0.003-0.008c0.051 0.125 0.13 0.239 0.231 0.338 0.095 0.091 0.213 0.164 0.345 0.21 0.136 0.049 0.281 0.073 0.427 0.072 0.085 0.001 0.17-0.004 0.254-0.014 0.211-0.022 0.4-0.106 0.55-0.234l-0.001 0.001c0.021-0.017 0.049-0.028 0.078-0.029h0zM10.441 30.517c0.003 0.191-0.035 0.381-0.112 0.562-0.074 0.172-0.18 0.317-0.311 0.435l-0.001 0.001c-0.138 0.123-0.301 0.22-0.481 0.283l-0.010 0.003c-0.189 0.064-0.406 0.101-0.632 0.101s-0.443-0.037-0.646-0.105l0.014 0.004c-0.188-0.067-0.351-0.165-0.489-0.288l0.001 0.001c-0.133-0.12-0.24-0.267-0.313-0.432l-0.003-0.008c-0.071-0.166-0.112-0.359-0.112-0.562s0.041-0.396 0.116-0.572l-0.004 0.010c0.071-0.165 0.178-0.315 0.316-0.442 0.139-0.121 0.305-0.215 0.488-0.277 0.188-0.065 0.406-0.103 0.632-0.103s0.443 0.038 0.646 0.107l-0.014-0.004c0.184 0.065 0.351 0.162 0.49 0.286 0.137 0.126 0.244 0.274 0.314 0.435 0.077 0.181 0.115 0.373 0.112 0.565zM10.005 30.517c0-0.007 0-0.015 0-0.024 0-0.154-0.029-0.301-0.082-0.436l0.003 0.008c-0.101-0.26-0.308-0.459-0.566-0.548l-0.007-0.002c-0.137-0.047-0.295-0.074-0.459-0.074s-0.322 0.027-0.469 0.077l0.010-0.003c-0.136 0.049-0.254 0.121-0.352 0.214l0-0c-0.097 0.092-0.174 0.205-0.223 0.331l-0.002 0.006c-0.050 0.134-0.079 0.289-0.079 0.451s0.029 0.317 0.082 0.46l-0.003-0.009c0.101 0.26 0.31 0.46 0.57 0.547l0.007 0.002c0.296 0.097 0.622 0.097 0.918 0 0.133-0.046 0.253-0.119 0.35-0.211 0.1-0.098 0.175-0.213 0.222-0.338 0.056-0.145 0.082-0.298 0.079-0.451zM13.715 30.99l0.044 0.101c0.016-0.036 0.030-0.069 0.047-0.101 0.016-0.034 0.034-0.067 0.054-0.099l1.061-1.677c0.021-0.029 0.040-0.047 0.061-0.053s0.047-0.009 0.073-0.009c0.005 0 0.010 0 0.015 0l-0.001-0h0.314v2.728h-0.372v-2.090c-0.001-0.014-0.002-0.031-0.002-0.047s0.001-0.033 0.002-0.049l-0 0.002-1.069 1.701c-0.015 0.026-0.036 0.047-0.062 0.061l-0.001 0c-0.026 0.014-0.057 0.023-0.090 0.023-0.001 0-0.001 0-0.002 0h-0.060c-0.001 0-0.001 0-0.002 0-0.033 0-0.063-0.008-0.090-0.023l0.001 0c-0.026-0.014-0.047-0.035-0.061-0.061l-0-0.001-1.099-1.711v2.189h-0.359v-2.722h0.313c0.004-0 0.009-0 0.015-0 0.026 0 0.051 0.003 0.075 0.010l-0.002-0c0.026 0.011 0.046 0.030 0.058 0.053l1.084 1.678c0.021 0.030 0.040 0.063 0.054 0.098zM17.71 30.855v1.021h-0.414v-2.723h0.926c0.175-0.003 0.35 0.018 0.517 0.059 0.134 0.034 0.259 0.091 0.366 0.17 0.089 0.070 0.159 0.16 0.205 0.262l0.002 0.004c0.050 0.111 0.073 0.23 0.071 0.349 0 0.005 0 0.011 0 0.017 0 0.246-0.117 0.465-0.299 0.603l-0.002 0.001c-0.107 0.082-0.232 0.143-0.368 0.18-0.14 0.040-0.301 0.064-0.468 0.064-0.012 0-0.023-0-0.035-0l-0.501-0.008zM17.71 30.562h0.503c0.109 0.002 0.218-0.013 0.322-0.041 0.089-0.026 0.166-0.066 0.234-0.119l-0.002 0.001c0.117-0.097 0.191-0.241 0.191-0.404 0-0.002 0-0.004-0-0.007v0c0.001-0.009 0.001-0.019 0.001-0.029 0-0.070-0.015-0.136-0.043-0.195l0.001 0.003c-0.035-0.074-0.084-0.136-0.144-0.185l-0.001-0.001c-0.139-0.093-0.31-0.149-0.493-0.149-0.023 0-0.046 0.001-0.069 0.003l0.003-0h-0.503v1.122zM23.294 31.88h-0.328c-0.002 0-0.004 0-0.006 0-0.032 0-0.061-0.009-0.086-0.026l0.001 0c-0.023-0.016-0.042-0.038-0.054-0.062l-0-0.001-0.282-0.658h-1.419l-0.293 0.658c-0.012 0.025-0.029 0.046-0.051 0.061l-0 0c-0.025 0.017-0.055 0.027-0.089 0.027-0.002 0-0.004-0-0.005-0h-0.327l1.246-2.728h0.432l1.263 2.728zM21.237 30.867h1.173l-0.495-1.11c-0.037-0.084-0.069-0.169-0.093-0.256l-0.048 0.142c-0.016 0.048-0.032 0.086-0.049 0.124l0.003-0.008-0.49 1.108zM25.089 29.166c0.024 0.011 0.046 0.028 0.062 0.048l1.817 2.056v-2.117h0.372v2.728h-0.207c-0.001 0-0.003 0-0.005 0-0.029 0-0.057-0.006-0.082-0.017l0.001 0c-0.026-0.013-0.048-0.030-0.066-0.050l-0-0-1.816-2.054c0.001 0.014 0.001 0.030 0.001 0.047s-0.001 0.033-0.002 0.049l0-0.002v2.027h-0.372v-2.728h0.22c0.025 0 0.051 0.005 0.075 0.013zM30.402 30.795v1.083h-0.415v-1.082l-1.149-1.643h0.372c0.003-0 0.006-0 0.009-0 0.030 0 0.057 0.009 0.080 0.023l-0.001-0c0.023 0.018 0.042 0.039 0.056 0.062l0.718 1.060c0.049 0.070 0.092 0.149 0.124 0.234l0.003 0.008 0.055-0.117c0.020-0.043 0.043-0.084 0.070-0.124l0.709-1.067c0.015-0.022 0.033-0.041 0.053-0.058l0-0c0.023-0.017 0.051-0.027 0.082-0.027 0.003 0 0.005 0 0.008 0l-0-0h0.376l-1.15 1.65zM13.509 24.576c0.181 0.020 0.363 0.036 0.549 0.050 2.803-1.090 5.174-2.872 6.818-5.126s2.485-4.878 2.421-7.546l-3.089-2.683c0.628 2.84 0.334 5.775-0.849 8.478s-3.208 5.067-5.849 6.827z"></path>
<path d="M12.407 24.451l0.083 0.015c2.822-1.755 4.973-4.203 6.176-7.031s1.402-5.904 0.571-8.83l-4.4-3.822c1.779 3.142 2.496 6.659 2.065 10.141-0.43 3.482-1.989 6.786-4.495 9.528zM27.328 15.106c-0.747 2.931-2.563 5.574-5.177 7.538-0.714 0.543-1.519 1.053-2.367 1.49l-0.092 0.043c2.129-0.543 4.085-1.504 5.718-2.808s2.901-2.917 3.703-4.714l-1.784-1.549z"></path>
<path d="M26.629 14.674l-2.541-2.207c-0.049 2.517-0.872 4.976-2.385 7.122s-3.66 3.902-6.217 5.084h0.012c0.57 0 1.139-0.030 1.705-0.088 2.39-0.848 4.502-2.197 6.146-3.926s2.771-3.785 3.278-5.985zM12.774 3.17l-3.031-2.636c-2.709 0.91-5.039 2.509-6.686 4.588s-2.531 4.542-2.539 7.066c0.010 2.789 1.090 5.495 3.070 7.69 1.979 2.194 4.744 3.754 7.858 4.43 2.78-2.942 4.408-6.578 4.646-10.379s-0.924-7.57-3.319-10.758zM33.63 14.268c-0.011-3.308-1.528-6.478-4.221-8.818s-6.342-3.658-10.15-3.668c-0.008 0-0.018-0-0.028-0-1.831 0-3.59 0.305-5.231 0.867l0.114-0.034 18.556 16.122c0.605-1.313 0.958-2.849 0.96-4.468v-0.001z"></path>
</svg>
<svg id="icon-envelope" viewBox="0 0 43 32">
<path d="M38.667 0h-34.667c-2.205 0-4 1.795-4 4v24c0 2.205 1.795 4 4 4h34.667c2.205 0 4-1.795 4-4v-24c0-2.205-1.795-4-4-4zM38.667 2.667c0.181 0 0.355 0.037 0.512 0.104l-17.845 15.467-17.845-15.467c0.151-0.065 0.327-0.104 0.512-0.104h34.667zM38.667 29.333h-34.667c-0.736 0-1.333-0.597-1.333-1.333v0-22.413l17.792 15.421c0.233 0.203 0.539 0.327 0.875 0.327s0.642-0.124 0.876-0.328l-0.002 0.001 17.792-15.421v22.413c0 0.736-0.597 1.333-1.333 1.333v0z"></path>
</svg>
<svg id="icon-smartphone" viewBox="0 0 20 32">
<path d="M17 0h-14c-1.654 0-3 1.346-3 3v26c0 1.654 1.346 3 3 3h14c1.654 0 3-1.346 3-3v-26c0-1.654-1.346-3-3-3zM3 2h14c0.552 0 1 0.448 1 1v0 21h-16v-21c0-0.552 0.448-1 1-1v0zM17 30h-14c-0.552 0-1-0.448-1-1v0-3h16v3c0 0.552-0.448 1-1 1v0z"></path>
<path d="M4.708 27.478c0.18 0.163 0.293 0.399 0.293 0.66s-0.113 0.497-0.292 0.659l-0.001 0.001c-0.186 0.17-0.435 0.275-0.708 0.275s-0.522-0.104-0.709-0.275l0.001 0.001c-0.18-0.163-0.293-0.399-0.293-0.66s0.113-0.497 0.292-0.659l0.001-0.001c0.186-0.17 0.435-0.275 0.708-0.275s0.522 0.104 0.709 0.275l-0.001-0.001z"></path>
</svg>
<svg id="icon-instagram" viewBox="0 0 32 32">
<path d="M31.968 9.408c-0.074-1.701-0.349-2.869-0.742-3.882-0.424-1.111-1.054-2.059-1.85-2.837l-0.001-0.001c-0.78-0.792-1.724-1.419-2.778-1.827l-0.054-0.018c-1.019-0.394-2.181-0.667-3.882-0.742-1.712-0.082-2.256-0.101-6.602-0.101-4.344 0-4.888 0.019-6.595 0.094-1.699 0.074-2.869 0.349-3.88 0.742-1.112 0.424-2.060 1.054-2.839 1.85l-0.001 0.001c-0.791 0.78-1.418 1.724-1.825 2.778l-0.018 0.054c-0.395 1.019-0.669 2.181-0.744 3.882-0.082 1.712-0.101 2.256-0.101 6.602 0 4.344 0.019 4.888 0.094 6.595 0.075 1.701 0.35 2.869 0.744 3.882 0.426 1.11 1.055 2.057 1.849 2.837l0.001 0.001c0.8 0.813 1.77 1.443 2.832 1.843 1.019 0.395 2.182 0.67 3.882 0.744 1.707 0.075 2.251 0.094 6.595 0.094 4.346 0 4.89-0.019 6.595-0.094 1.701-0.074 2.869-0.349 3.882-0.742 2.157-0.85 3.833-2.526 4.664-4.628l0.019-0.055c0.394-1.019 0.669-2.182 0.744-3.882 0.075-1.707 0.093-2.251 0.093-6.595s-0.006-4.888-0.080-6.595zM29.088 22.474c-0.070 1.563-0.333 2.406-0.55 2.97-0.552 1.399-1.64 2.486-3.004 3.024l-0.036 0.012c-0.56 0.219-1.411 0.482-2.968 0.55-1.688 0.075-2.194 0.094-6.464 0.094-4.269 0-4.782-0.019-6.464-0.094-1.563-0.069-2.406-0.331-2.97-0.55-0.721-0.269-1.334-0.676-1.836-1.192l-0.001-0.001c-0.517-0.503-0.924-1.117-1.184-1.803l-0.011-0.034c-0.218-0.563-0.48-1.413-0.549-2.97-0.075-1.688-0.094-2.195-0.094-6.464 0-4.27 0.019-4.784 0.094-6.464 0.069-1.563 0.331-2.406 0.549-2.97 0.269-0.722 0.678-1.337 1.198-1.837l0.002-0.002c0.504-0.517 1.119-0.923 1.806-1.182l0.034-0.011c0.56-0.219 1.411-0.48 2.968-0.55 1.688-0.074 2.195-0.093 6.464-0.093 4.275 0 4.782 0.019 6.464 0.093 1.563 0.069 2.406 0.331 2.97 0.55 0.693 0.256 1.325 0.662 1.837 1.194 0.531 0.52 0.938 1.144 1.195 1.84 0.218 0.56 0.48 1.411 0.549 2.968 0.075 1.688 0.094 2.194 0.094 6.464 0 4.269-0.019 4.768-0.094 6.458z"></path>
<path d="M16.059 7.782c-4.539 0.002-8.218 3.682-8.219 8.221v0c0.091 4.471 3.737 8.060 8.221 8.060s8.13-3.589 8.221-8.052l0-0.009c-0.001-4.54-3.681-8.22-8.221-8.221h-0zM16.059 21.334c-2.945-0-5.332-2.388-5.332-5.333s2.388-5.333 5.333-5.333c0 0 0.001 0 0.001 0h-0c2.946 0 5.334 2.388 5.334 5.334s-2.388 5.334-5.334 5.334v0zM26.525 7.458c0 1.060-0.86 1.92-1.92 1.92s-1.92-0.86-1.92-1.92v0c0-1.060 0.86-1.92 1.92-1.92s1.92 0.86 1.92 1.92v0z"></path>
</svg>
<svg id="icon-twitter" viewBox="0 0 32 32">
<path d="M32 6.078c-1.1 0.493-2.376 0.857-3.713 1.028l-0.068 0.007c1.36-0.817 2.382-2.078 2.873-3.579l0.013-0.046c-1.197 0.722-2.591 1.273-4.076 1.573l-0.084 0.014c-1.2-1.279-2.9-2.076-4.787-2.076-3.622 0-6.558 2.936-6.558 6.558 0 0.001 0 0.003 0 0.004v-0c0 0.52 0.043 1.021 0.152 1.496-5.454-0.266-10.28-2.88-13.522-6.861-0.564 0.949-0.899 2.092-0.902 3.313v0.001c0 2.272 1.171 4.286 2.914 5.451-1.091-0.030-2.107-0.325-2.994-0.823l0.033 0.017v0.072c0.003 3.165 2.236 5.807 5.213 6.44l0.043 0.008c-0.499 0.136-1.071 0.215-1.662 0.215-0.020 0-0.041-0-0.061-0l0.003 0c-0.419 0-0.843-0.024-1.242-0.112 0.85 2.598 3.261 4.509 6.13 4.57-2.215 1.746-5.045 2.8-8.122 2.8-0.004 0-0.008 0-0.013 0h0.001c-0.018 0-0.040 0-0.062 0-0.531 0-1.055-0.034-1.569-0.099l0.061 0.006c2.826 1.846 6.287 2.944 10.004 2.944 0.021 0 0.042-0 0.063-0h-0.003c12.072 0 18.672-10 18.672-18.669 0-0.288-0.010-0.57-0.024-0.848 1.299-0.936 2.39-2.064 3.258-3.355l0.030-0.047z"></path>
</svg>
<svg id="icon-facebook" viewBox="0 0 32 32">
<path d="M21.328 5.312h2.923v-5.088c-1.232-0.143-2.66-0.224-4.107-0.224-0.052 0-0.104 0-0.157 0l0.008-0c-4.213 0-7.099 2.65-7.099 7.52v4.48h-4.646v5.688h4.646v14.312h5.699v-14.31h4.459l0.709-5.688h-5.17v-3.922c0-1.643 0.443-2.768 2.734-2.768z"></path>
</svg>
<svg id="icon-linkedin" viewBox="0 0 32 32">
<path d="M31.992 32h0.008v-11.738c0-5.741-1.237-10.163-7.947-10.163-3.227 0-5.392 1.77-6.277 3.45h-0.093v-2.914h-6.365v21.363h6.627v-10.578c0-2.786 0.528-5.48 3.978-5.48 3.398 0 3.448 3.179 3.448 5.658v10.402h6.621zM0.528 10.635h6.635v21.365h-6.635v-21.365zM3.843 0c-2.123 0-3.843 1.721-3.843 3.843v0c0 2.12 1.722 3.878 3.843 3.878 2.12 0 3.842-1.757 3.842-3.878s-1.72-3.841-3.841-3.843h-0z"></path>
</svg>
</svg>